<?xml version="1.0" encoding="UTF-8" standalone="no"?>
<svg xmlns:dc="http://purl.org/dc/elements/1.1/" xmlns:cc="http://creativecommons.org/ns#" xmlns:rdf="http://www.w3.org/1999/02/22-rdf-syntax-ns#" xmlns:svg="http://www.w3.org/2000/svg" xmlns="http://www.w3.org/2000/svg" viewBox="0 0 800 700" height="700" width="800" xml:space="preserve" version="1.1" id="svg2"><metadata id="metadata8"><rdf:RDF><cc:Work rdf:about=""><dc:format>image/svg+xml</dc:format><dc:type rdf:resource="http://purl.org/dc/dcmitype/StillImage"/><dc:title/></cc:Work></rdf:RDF></metadata><defs id="defs6"/><g transform="matrix(1.25,0,0,-1.25,0,700.00003)" id="g10"><g transform="matrix(13.039643,0,0,13.039643,-784.93435,-399.93887)" id="g8032"><path d="m 79.491,49.564 c 0.297,-0.304 0.421,-0.467 0.828,-0.64 1.11,0.077 4.209,0.588 4.926,2.08 -1.365,-1.109 -3.505,-1.589 -4.849,-1.587 -0.287,10e-4 -0.55,0.052 -0.905,0.147" style="fill:#a98785;fill-opacity:1;fill-rule:nonzero;stroke:none" id="path174"/><path d="m 93.8185,65.5671 c -0.397,0.137 -0.763,0.373 -1.195,0.408 0.265,-0.304 0.829,-0.476 1.195,-0.408" style="fill:#a98785;fill-opacity:1;fill-rule:nonzero;stroke:none" id="path176"/><path d="m 89.0867,59.8055 c 0.367,-1.697 2.238,-2.246 3.751,-1.933 -1.448,0.195 -2.772,0.501 -3.751,1.933" style="fill:#a98785;fill-opacity:1;fill-rule:nonzero;stroke:none" id="path178"/><path d="m 92.2047,56.8285 c 0.041,-0.509 0.13,-0.979 0.561,-1.218 -0.099,0.373 -0.161,0.945 -0.229,1.453 -0.22,0.096 -0.353,0.001 -0.332,-0.235" style="fill:#a98785;fill-opacity:1;fill-rule:nonzero;stroke:none" id="path180"/><path d="m 78.1759,56.5217 c -0.618,-0.421 -0.912,-0.932 -1.068,-1.551 -0.142,-0.574 -0.201,-1.144 -0.003,-1.753 0.102,1.213 0.37,2.36 1.071,3.304" style="fill:#a98785;fill-opacity:1;fill-rule:nonzero;stroke:none" id="path182"/><path d="m 69.8524,50.3955 0.166,-0.167 c 1.031,0.604 1.996,1.705 2.598,2.718 0.323,-0.48 0.646,-0.563 0.998,-0.465 -0.333,0.237 -0.533,0.743 -0.963,0.745 -0.769,-1.01 -1.734,-2.023 -2.799,-2.831" style="fill:#a98785;fill-opacity:1;fill-rule:nonzero;stroke:none" id="path184"/><path d="m 76.9688,52.3054 c -0.136,-0.836 0.323,-1.612 0.629,-2.196 0.373,-0.694 0.829,-1.15 1.425,-1.217 -1.324,0.842 -1.124,2.431 -2.054,3.413" style="fill:#a98785;fill-opacity:1;fill-rule:nonzero;stroke:none" id="path186"/><path d="m 108.8534,47.9514 -0.261,-0.007 c 0.047,1.618 -1.936,1.229 -3.236,2.205 -1.05,0.808 -2.244,2.01 -3.471,3.168 -0.233,0.22 -0.342,0.551 -0.275,0.868 2.568,-2.275 3.651,-4.605 6.699,-4.686 0.665,-0.27 0.713,-0.974 0.544,-1.548 m -0.966,-0.521 c -0.184,0.049 -0.56,0.082 -0.756,0.045 0.125,0.798 -0.253,1.259 -1.389,2.168 1.677,-0.783 2.557,-0.5 2.557,-1.739 -0.136,-0.188 -0.222,-0.302 -0.412,-0.474 m -1.158,-0.031 c -0.115,-0.078 -0.411,-0.178 -0.724,-0.178 -0.47,0.368 -0.307,1.364 -0.907,1.837 -0.129,0.101 -0.241,0.089 -0.348,-0.009 l -0.088,-0.094 c 0.455,-0.264 0.743,-0.999 0.475,-1.321 -0.876,-0.855 -2.043,-0.517 -3.272,0.611 -0.833,0.811 -1.702,1.265 -2.509,2.653 -0.113,-0.416 -0.62,-0.659 -1.049,-0.416 -1.717,0.969 -3.763,2.866 -5.009,4.094 -0.035,0.036 -0.068,0.072 -0.108,0.107 -0.003,10e-4 -0.005,0.005 -0.007,0.007 l -0.001,0 c -0.295,0.263 -1.042,0.663 -1.211,0.429 -0.317,-0.515 -1.585,-1.276 -2.058,-1.214 -0.094,0.05 -0.054,0.493 0.197,0.816 0.504,0.649 1.463,1.365 1.463,1.365 -0.3,0.828 -1.39,-0.39 -3.521,2.505 l 0,0.338 c 0.412,-0.036 0.88,-0.028 0.935,0.315 -0.999,-0.079 -1.369,0.166 -1.628,1.544 -0.408,-0.246 -0.135,-0.942 0.064,-1.283 -0.86,-0.428 -1.303,0.932 -1.423,2.837 -0.198,-1.326 -0.274,-3.053 0.861,-4.012 l 0,-0.038 c -0.956,0.152 -1.589,0.44 -2.054,1.106 0.207,1.701 0.536,3.291 0.963,4.971 1.335,-0.593 1.989,0.117 3.823,-0.514 1.417,-0.487 2.711,-0.784 4.052,-1.462 1.483,-0.749 2.224,-1.751 2.559,-3.141 0.385,-1.588 1.138,-2.294 2.056,-3.115 2.011,-1.798 7.423,-6.801 7.423,-6.801 0.565,-0.575 1.274,-1.153 1.046,-1.937 m -15.895,6.09 c 0.409,0.609 1.685,1.594 2.151,0.763 0.17,-0.305 0.2,-0.469 0.243,-0.77 -0.565,-0.293 -1.619,-0.228 -2.394,0.007 m 1.719,-1.252 c -0.984,0.007 -1.45,0.273 -1.643,0.896 0.793,-0.182 1.656,-0.312 2.285,-0.03 -0.116,-0.368 -0.304,-0.635 -0.642,-0.866 m -4.043,-2.479 c -1.801,-1.039 -5.329,-2.123 -7.314,-1.722 -0.562,0.114 -1.232,0.383 -1.555,0.597 l -0.166,-0.17 c 0.467,-0.42 0.936,-0.686 1.404,-0.837 -1.532,0.023 -3.262,0.049 -4.901,0.09 0.056,0.427 -0.013,0.791 -0.192,1.079 0.537,-0.035 0.905,-0.335 1.068,-0.964 l 0.046,0 c 0.054,0.946 -0.537,1.457 -1.469,1.348 -0.393,0.298 -0.968,0.461 -1.667,0.472 0.043,0.588 0.313,1.062 0.788,1.56 1.035,-0.034 1.938,-0.948 2.825,-1.893 l 0.021,0.023 c -1.041,1.517 -1.715,3.02 -2.587,3.541 l -0.567,0.003 c -0.728,0.777 -1.024,2.295 -2.321,2.369 -0.133,-0.008 -0.233,-0.136 -0.233,-0.27 1.629,0.062 1.79,-1.93 2.719,-2.741 -0.371,0.022 -0.699,-0.051 -1.031,-0.334 0.347,-0.071 0.675,-0.201 0.865,-0.409 -0.647,-1.088 -1.77,-1.949 -2.649,-2.148 l -0.025,0.055 c 0.401,0.749 0.749,1.414 0.912,2.199 -0.692,-1.069 -1.529,-2.01 -2.302,-2.651 -0.033,0.488 -0.155,1.021 -0.463,1.433 -0.142,0.069 -0.312,0.107 -0.488,0.107 -0.914,0 -1.172,-0.542 -1.33,-1.235 l -0.044,0 c -0.003,0.056 -0.005,0.111 -0.005,0.166 0,2.575 3.44,7.492 6.115,7.492 1.449,0 1.862,-0.95 1.932,-2.689 0.057,-1.434 0.319,-2.055 0.57,-2.336 -0.276,0.912 -0.39,1.648 -0.358,2.719 0.027,0.873 -0.153,1.683 -0.65,2.192 0.242,0.204 0.74,0.594 1.29,0.865 1.98,0.977 4.258,0.942 6.379,1.882 0.535,0.237 0.962,0.402 1.397,0.451 l -0.085,-0.673 c 0.455,-1.118 2.276,-1.531 3.591,-1.5 0.333,-0.383 0.669,-1.225 0.646,-1.476 -0.295,-1.843 0.931,-3.435 1.672,-4.515 0.059,-0.517 -0.686,-1.345 -1.838,-2.08 m -20.826,-1.519 c -0.241,-0.982 -0.751,-1.911 -2.774,-1.911 -0.939,0 -1.952,0.258 -2.501,0.508 1.497,0.563 3.833,1.194 5.275,1.403 m -3.289,-3.258 c -2.315,0 -3.811,0.647 -3.811,1.611 0,1.72 4.108,2.654 6.925,3.202 -0.005,-0.059 -0.007,-0.115 -0.007,-0.173 0,-0.333 0.041,-0.668 0.108,-1.002 -0.717,-0.121 -3.753,-0.666 -5.497,-1.509 -0.297,-0.145 -0.17,-0.552 -0.178,-0.55 0,0 1.327,-0.601 2.951,-0.601 4.443,0 2.399,4.179 4.342,4.179 0.422,0 0.609,-0.789 0.609,-1.288 0,-2.624 -2.73,-3.869 -5.442,-3.869 m 20.434,17.59 0.128,-0.018 -0.375,-2.019 c -0.198,-0.08 -0.492,-0.149 -0.681,-0.144 -0.031,0.857 0.372,1.719 0.928,2.181 m 5.874,1.293 0,-0.027 c -1.159,0.143 -2.243,1.205 -3.427,0.609 -0.368,-0.008 -1.076,0.211 -1.397,0.354 0.076,0.392 0.315,0.835 0.832,0.757 1.731,-0.259 2.709,-1.177 3.992,-1.693 m -5.181,4.311 c 0.466,0.538 0.885,0.87 1.635,1.224 -0.203,-1.114 1.072,-1.562 1.166,-2.594 0.835,-0.296 1.025,-1.336 1.904,-0.825 1.327,-2.736 4.255,-1.055 6.045,-2.679 l -0.006,0.188 c -1.559,1.436 -4.467,0.816 -5.815,2.6 0.462,0.234 1.016,0.19 1.707,-0.046 -0.834,1.305 -2.86,-0.264 -3.455,1.224 0.863,0.167 1.463,0.064 2.26,-0.175 l 0.134,0.168 c -0.929,0.814 -2.161,0.107 -3.089,0.919 -0.798,0.778 -0.596,2.095 -0.161,2.97 0.434,0.776 1.432,0.639 2.061,0.401 0.351,-1.022 0.802,-1.765 1.691,-2.434 -0.518,0.739 -0.81,1.276 -1.026,2.297 l 0.932,0.54 c 0.466,-0.036 0.863,-0.205 1.364,-0.137 -0.4,-0.642 0.26,-1.993 -0.871,-2.026 0.004,-0.14 0.082,-0.262 0.233,-0.337 0.766,0.335 0.163,-0.812 0.631,-1.048 0.194,-1.858 2.621,-1.458 2.785,-3.247 -0.466,0.136 -0.931,0.676 -1.363,0.409 1.029,-0.544 2.057,-1.423 2.72,-2.438 0.284,-0.461 0.68,-1.124 0.979,-1.786 -0.103,0.681 -0.538,1.564 -0.814,1.955 -0.697,0.743 -1.623,1.86 -1.123,2.905 l -0.064,0.405 c 0.865,0.235 0.328,1.173 0.701,2.091 0.143,0.346 0.504,0.701 0.666,0.397 0.991,-1.678 1.252,-2.204 1.925,-3.765 -1.232,-1.177 0.662,-2.125 0.666,-3.349 0.011,-2.495 1.303,-3.826 1.037,-6.323 0.065,-0.673 0.36,-0.813 0.165,-1.528 -0.339,0.452 -0.33,1.259 -0.729,1.7 -1.626,1.411 -1.476,4.071 -3.226,5.908 -0.561,0.591 -1.244,0.788 -1.834,1.158 l 0.222,0.234 c -0.622,0.269 -0.973,0.295 -1.693,0.645 0.496,-0.878 1.494,-1.149 2.258,-1.693 2.496,-1.722 1.837,-4.117 3.732,-6.182 0.441,-0.482 0.532,-0.732 0.476,-1.025 l -0.031,0 c -1.459,1.377 -3.491,2.494 -3.72,4.608 -1.054,4.052 -5.011,3.682 -8.179,6.058 -1.216,0.909 -1.848,1.279 -2.808,0.854 -0.236,0.588 -0.023,1.136 -0.088,1.779 m 3.066,3.857 c 1.335,0.099 2.358,0.237 3.651,0.662 l 0,-0.171 c -0.633,-0.064 -1.097,-0.469 -1.598,-0.806 l -2.053,0.289 0,0.026 z m 1.698,0.527 c 0.968,0.688 2.536,1.102 3.714,0.468 -0.002,-0.43 -0.436,-0.387 -0.668,-0.603 l -0.042,0 0.079,0.267 c -0.366,-0.066 -0.864,0.07 -1.197,0.238 l -1.886,-0.391 0,0.021 z m 5.968,-0.243 0,-0.021 c -0.805,0.341 -1.399,-0.073 -2.336,0.054 l 0,0.02 c 0.655,0.675 1.68,0.616 2.336,-0.053 m -0.495,-1.184 c -0.139,0.303 -0.313,0.616 -0.619,0.785 l -0.576,-0.107 c -0.034,0.267 0.07,0.389 0.466,0.404 0.703,0.029 1.156,-0.112 1.263,-0.509 -0.035,-0.169 -0.367,-0.505 -0.534,-0.573 m -1.536,-3.068 -0.168,-0.573 c -0.25,0 -0.544,0.041 -0.564,0.337 -0.016,0.264 0.165,0.448 0.399,0.575 l 0.398,-0.172 c -0.029,1.217 1.536,0.45 1.833,-0.023 0.097,-0.368 0.079,-0.681 0.03,-1.027 -0.502,-0.011 -1.153,0.079 -1.677,0.266 -0.283,0.142 0.213,0.548 -0.251,0.617 m 2.631,2.356 -0.067,-0.884 -0.033,0 c -0.569,0.485 -1.668,0.92 -2.269,0.306 -0.623,-0.041 -1.124,-0.36 -1.29,-0.965 l -0.101,0 c -0.23,0.372 0.101,0.743 0.401,0.911 -0.83,0.114 -0.685,2.532 0.672,2.261 -0.114,-0.259 0.131,-0.481 0.297,-0.577 1.13,0.674 0.828,-1.756 1.758,-0.407 0.102,0.042 0.249,0.077 0.367,0.08 0.151,-0.182 0.28,-0.482 0.265,-0.725 m 12.378,-21.593 c -0.063,0.324 -0.308,0.768 -0.908,0.981 -2.253,-0.039 -3.66,1.819 -5.216,3.381 -1.456,1.461 -1.701,1.761 -1.896,5.34 -0.565,1.014 -0.69,2.197 -0.853,3.379 -0.162,1.113 -1.521,2.123 -0.601,3.399 -0.697,1.339 -1.43,3.026 -1.773,4.18 -1.494,0.982 -0.76,3.633 -2.885,3.773 l -0.635,-0.167 c -1.592,1.049 -3.622,0.245 -5.018,-0.63 -0.667,-0.437 -2.267,0.316 -2.279,-0.961 0.803,-1.663 -1.469,-2.061 -2.137,-3.32 0.078,-0.299 0.097,-0.608 0.097,-0.847 0,-0.806 -0.458,-2.074 -0.458,-2.753 0,-0.377 0.065,-0.671 0.192,-0.9 0,-0.84 -1.294,-2.046 -1.294,-2.046 0.077,-0.86 0.229,-1.463 -0.66,-1.831 -2.142,-0.887 -4.396,-0.904 -6.378,-1.88 -0.583,-0.288 -1.108,-0.712 -1.334,-0.905 -0.298,0.203 -0.68,0.322 -1.161,0.322 -2.783,0 -6.059,-4.491 -6.486,-7.174 -3.455,-0.67 -7.353,-1.545 -7.353,-3.6 0,-1.312 1.667,-1.975 4.176,-1.975 2.353,0 4.521,0.796 5.553,2.639 0.162,0.286 0.357,0.536 0.572,0.744 0.894,0.86 2.187,1.06 3.314,1.089 1.36,0.037 1.897,-0.529 2.127,-1.349 -1.897,0.046 -3.667,0.105 -4.854,0.184 0.001,-0.594 0.425,-0.808 1.648,-0.825 0.578,-0.005 6.99,0.054 11.029,0.062 0,0 0.795,-0.002 1.414,0 0.616,-0.002 1.412,0 1.412,0 4.04,-0.008 10.451,-0.067 11.031,-0.062 1.222,0.017 1.649,0.231 1.649,0.825 -3.534,-0.232 -12.226,-0.305 -14.092,-0.317 -0.377,0.002 -1.034,0.005 -1.868,0.015 1.958,0.321 4.536,1.207 6.643,2.317 1.782,0.943 3.286,1.951 4.498,1.976 1.089,0 2.207,-1.231 4.854,-2.458 1.861,-0.861 3.212,-2.663 4.704,-2.663 0.668,0 1.206,0.255 1.434,0.661 0.053,-0.165 0.162,-0.393 0.384,-0.539 0.657,0 1.062,0.292 1.562,0.292 0.199,0 0.378,-0.005 0.576,-0.076 0,0 0.223,0.25 0.496,0.552 0.222,0.01 0.422,0.015 0.61,0.017 0.14,0.341 0.216,0.876 0.164,1.15" style="fill:#a98785;fill-opacity:1;fill-rule:nonzero;stroke:none" id="path188"/></g><g transform="matrix(13.039643,0,0,13.039643,-784.93435,-399.93887)" id="g8015"><path d="m 60.196,30.671 49.004,0 0,0.371 -49.004,0 0,-0.371 z" style="fill:#d43216;fill-opacity:1;fill-rule:nonzero;stroke:none" id="path190"/><path d="m 63.6964,34.0883 c 0.608,0 0.96,0.24 0.96,0.671 l 0,0.021 c 0,0.398 -0.309,0.658 -0.978,0.658 l -1.527,0 0,-1.35 1.545,0 z m -0.287,2.775 c 0.607,0 0.947,0.207 0.947,0.638 l 0,0.022 c 0,0.396 -0.309,0.627 -0.907,0.627 l -1.298,0 0,-1.287 1.258,0 z m -3.206,2.917 3.7,0 c 0.906,0 1.544,-0.228 1.968,-0.657 0.289,-0.294 0.463,-0.682 0.463,-1.184 l 0,-0.02 c 0,-0.849 -0.473,-1.351 -1.112,-1.632 0.876,-0.292 1.432,-0.797 1.432,-1.789 l 0,-0.022 c 0,-1.257 -1.008,-2.02 -2.729,-2.02 l -3.722,0 0,7.324 z" style="fill:#d43216;fill-opacity:1;fill-rule:nonzero;stroke:none" id="path192"/><path d="m 67.5528,39.7804 5.801,0 0,-1.726 -3.824,0 0,-1.108 3.464,0 0,-1.601 -3.464,0 0,-1.162 3.875,0 0,-1.726 -5.852,0 0,7.323 z" style="fill:#d43216;fill-opacity:1;fill-rule:nonzero;stroke:none" id="path194"/><path d="m 74.4043,39.7804 2,0 0,-5.544 3.493,0 0,-1.779 -5.493,0 0,7.323 z" style="fill:#d43216;fill-opacity:1;fill-rule:nonzero;stroke:none" id="path196"/><path d="m 80.7314,39.7804 5.773,0 0,-1.776 -3.773,0 0,-1.245 3.412,0 0,-1.687 -3.412,0 0,-2.615 -2,0 0,7.323 z" style="fill:#d43216;fill-opacity:1;fill-rule:nonzero;stroke:none" id="path198"/><path d="m 92.8731,36.0994 0,0.02 c 0,1.06 -0.753,1.98 -1.855,1.98 -1.092,0 -1.825,-0.902 -1.825,-1.958 l 0,-0.022 c 0,-1.057 0.752,-1.978 1.845,-1.978 1.103,0 1.835,0.898 1.835,1.958 m -5.731,0 0,0.02 c 0,2.104 1.67,3.81 3.896,3.81 2.226,0 3.875,-1.685 3.875,-3.788 l 0,-0.022 c 0,-2.103 -1.669,-3.81 -3.895,-3.81 -2.226,0 -3.876,1.685 -3.876,3.79" style="fill:#d43216;fill-opacity:1;fill-rule:nonzero;stroke:none" id="path200"/><path d="m 99.2531,36.2656 c 0.679,0 1.071,0.334 1.071,0.867 l 0,0.022 c 0,0.577 -0.412,0.869 -1.083,0.869 l -1.309,0 0,-1.758 1.321,0 z m -3.32,3.515 3.412,0 c 1.101,0 1.867,-0.291 2.351,-0.793 0.422,-0.418 0.639,-0.983 0.639,-1.707 l 0,-0.02 c 0,-1.119 -0.587,-1.863 -1.485,-2.25 l 1.72,-2.555 -2.307,0 -1.453,2.219 -0.022,0 -0.856,0 0,-2.219 -1.999,0 0,7.325 z" style="fill:#d43216;fill-opacity:1;fill-rule:nonzero;stroke:none" id="path202"/><path d="m 105.0853,38.0041 -2.166,0 0,1.776 6.331,0 0,-1.776 -2.165,0 0,-5.546 -2,0 0,5.546 z" style="fill:#d43216;fill-opacity:1;fill-rule:nonzero;stroke:none" id="path204"/><path d="m 83.1116,40.8431 -0.773,0 -1.609,4.071 0.965,0 1.042,-2.847 1.041,2.847 0.944,0 -1.61,-4.071 z" style="fill:#d43216;fill-opacity:1;fill-rule:nonzero;stroke:none" id="path206"/><path d="m 85.547,40.873 0.874,0 0,4.041 -0.874,0 0,-4.041 z" style="fill:#d43216;fill-opacity:1;fill-rule:nonzero;stroke:none" id="path208"/><path d="m 87.5864,40.8728 0,4.041 0.876,0 0,-3.233 1.986,0 0,-0.808 -2.862,0 z" style="fill:#d43216;fill-opacity:1;fill-rule:nonzero;stroke:none" id="path210"/><path d="m 91.2771,40.8728 0,4.041 0.876,0 0,-3.233 1.983,0 0,-0.808 -2.859,0 z" style="fill:#d43216;fill-opacity:1;fill-rule:nonzero;stroke:none" id="path212"/><path d="m 94.9682,40.8728 0,4.041 3.002,0 0,-0.791 -2.133,0 0,-0.818 1.878,0 0,-0.792 -1.878,0 0,-0.848 2.164,0 0,-0.792 -3.033,0 z" style="fill:#d43216;fill-opacity:1;fill-rule:nonzero;stroke:none" id="path214"/><path d="m 104.3826,42.8949 c 0,0.715 -0.485,1.219 -1.201,1.219 l -0.679,0 0,-2.439 0.679,0 c 0.716,0 1.201,0.49 1.201,1.209 l 0,0.011 z m -1.201,-2.022 -1.552,0 0,4.041 1.552,0 c 1.25,0 2.115,-0.872 2.115,-2.008 l 0,-0.011 c 0,-1.139 -0.865,-2.022 -2.115,-2.022" style="fill:#d43216;fill-opacity:1;fill-rule:nonzero;stroke:none" id="path216"/><path d="m 106.2451,40.8728 0,4.041 3.003,0 0,-0.791 -2.132,0 0,-0.818 1.876,0 0,-0.792 -1.876,0 0,-0.848 2.161,0 0,-0.792 -3.032,0 z" style="fill:#d43216;fill-opacity:1;fill-rule:nonzero;stroke:none" id="path218"/></g></g></svg>