<svg id="Calque_1" data-name="Calque 1" xmlns="http://www.w3.org/2000/svg" xmlns:xlink="http://www.w3.org/1999/xlink" viewBox="0 0 910 339.72"><defs><style>.cls-1{fill:none;}.cls-2{clip-path:url(#clip-path);}.cls-3{fill:#181818;}.cls-4{clip-path:url(#clip-path-2);}.cls-5{fill:#9e0627;}.cls-6{clip-path:url(#clip-path-3);}.cls-7{clip-path:url(#clip-path-4);}.cls-8{fill:#fff;}</style><clipPath id="clip-path"><rect class="cls-1" width="910" height="339.64"/></clipPath><clipPath id="clip-path-2"><rect class="cls-1" x="39" y="157.95" width="868.84" height="181.69"/></clipPath><clipPath id="clip-path-3"><rect class="cls-1" x="1.8" y="43.29" width="207.87" height="221.33"/></clipPath><clipPath id="clip-path-4"><rect class="cls-1" x="76.33" width="46.67" height="83.29"/></clipPath></defs><title>logo_la_belfortaine</title><g class="cls-2"><path class="cls-3" d="M0,0H910V339.64H0Z"/><path class="cls-3" d="M0,0H910V339.64H0Z"/></g><g class="cls-4"><path class="cls-5" d="M907.73,316.06c-.45.25-.9.52-1.38.78-1.45-1.58-2.91-3.15-4.35-4.74-34.39-38.18-77.73-60-127.61-69.85-40.1-7.92-80.5-7.86-121-3.85-73.71,7.28-144.85,26.49-215.71,46.88-51.79,14.91-103.38,30.6-156.28,41.29-39.22,7.94-78.6,14.06-118.84,13-28.83-.73-55.49-8.14-79.85-23.71-36.81-23.57-50.19-57.6-39-99.94,5.62-21.33,15.81-40.44,28.06-57.75-4.3,13.94-9.4,28.25-13.12,42.94a97.7,97.7,0,0,0-.31,48.58c6.35,24.74,22.49,40.88,45.73,50.42,23.88,9.79,49,11.6,74.37,10.69,44.75-1.57,88.11-11.29,131.06-23.19,49.38-13.69,97.09-32.23,145-50.11C505.68,218.49,558,203.7,612.19,196s107.91-8.45,160.91,7.12C823.81,218,865.48,245.75,894.19,291,899.3,299,903.26,307.69,907.73,316.06Z"/></g><g class="cls-6"><path class="cls-5" d="M190.57,264.09c-19.28-8.1-35.38-20.87-46.83-39.68-.28,8,5.36,19,18,35.47-14.1-5.89-36.14-33-44.14-54.36-8.69-23.19-8.92-46.73-3.86-70.84l-5.37,13.81a6.73,6.73,0,0,1-1.58-1.06c-6.76-8.41-15.74-11.9-26.29-12-12.64-.06-25-1.81-36.67-6.91C16.91,116.83,5.3,94.62,2.59,66.76,1.07,51.17,2.2,50.34,17.9,49.34,36.61,48.15,53,54.18,67.44,65.54c6.83,5.36,12.88,11.7,19.28,17.6l15.64,14.42L98,85.21c8.24-1.38,17.17-3.09,23-10.87s5.2-16.63,3.33-26.6c5.57-1.31,10.92-2.63,16.32-3.8,3.21-.69,4.64,1.22,5.25,4.05,2,9.18,4.14,18.31,5.86,27.54,1.29,6.94-1.53,12.42-7.38,16.29-1.33.89-2.76,1.65-4.83,2.9,17.23-2.9,26.2,1.34,33.84,16.67,3.56,7.17,8.34,12.5,14.38,17.77,7.5,6.56,13.55,15,19.17,23.4,2.27,3.39,2.94,8.84,2.25,13-1.39,8.33-4.43,16.36-6.38,24.62-1,4.42-2.27,9.2-1.63,13.56,1.2,8.11-.56,14.32-7.68,18.7a16.07,16.07,0,0,0-8.13,12.75c-.26,2.36-2.6,5.08-4.74,6.54-2.69,1.85-3.62,3.68-1.88,6.22C182.62,253.47,186.73,258.85,190.57,264.09ZM34.72,93.93c1.71-3,3.52-6.22,5.83-10.28a59.84,59.84,0,0,0-5.7,2.76,65.54,65.54,0,0,0-5.19,4L28.28,82C23.85,88.12,24,95.23,29,102.52c13.71,20,34.48,21.4,53.25,16.57a5.45,5.45,0,0,0,3-3.25C88.93,104.62,82.11,84.89,72,77.9c1.23,2.15,2.25,3.81,3.16,5.53,4.42,8.28,7.1,17,6.37,26.61-.26,3.38-1.61,4.84-5,4.75-5.62-.16-11.33.51-16.84-.3-5.85-.84-11.52-3-17.27-4.58l.43-2.28H60.53c-6.55-5.1-14.06-5.24-21.81-4.39-.23-.57-.44-1.16-.69-1.75l13.39-8.56ZM124,127.77c13.08-6.21,19.2,3.57,27.18,9.2-4.52-4.83-9.19-9.56-14.58-13.24C131.79,120.41,128.48,121.7,124,127.77Zm17.19-11.25c-8.51-7.71-14-8.1-17.7-.86,6.47-4.42,12-1.65,17.7.83Zm-9.66,25.38c1.69,7.49,8.17,9.66,14.84,4-6.76,2.82-11.12.6-14.83-4Z"/></g><path class="cls-5" d="M279,259.72c-2.8-.31-7.53-.55-12.16-1.39-11.74-2.06-22.59.38-33.36,5-5.42,2.32-11.3,4.36-17.12,4.84-13.76,1.07-21-6.18-20-19.9.51-7,2.25-13.93,4.08-20.72s4.57-13.37,6.81-20.07c5.31-15.85,15.89-22.26,32.46-20.58a281,281,0,0,0,29.75,1c7.26,0,14.09.88,20.27,4.89,5.64,3.67,7.29,7.7,6,14.35a5.14,5.14,0,0,0-.29,1.6c1.46,9.79,1.52,19.33-3,28.6-.73,1.51.84,4.14,1.33,6.25C296.47,255.62,293,260,279,259.72ZM218.41,205c0,4.73-.54,10.13.2,15.34.43,2.95,2.46,6.1,4.65,8.29,3.39,3.37,8.89,3,11.23,0,2.52-3.18,1.59-9.64-1.82-12.36C228,212.54,223.34,208.87,218.41,205Zm73.06,1.38c-2.48,4.54-4.64,7.83-6,11.42-.6,1.53-.06,4,.83,5.46.45.76,3.39,1.05,4.23.36a7.09,7.09,0,0,0,2.54-4.84c0-3.7-.87-7.4-1.56-12.43Z"/><path class="cls-5" d="M266.8,178.8c-9.72-14.71-20-27.71-19-45.79.51-9.67-.53-19.44-.69-29.16a8.17,8.17,0,0,1,.14-1.78,7.77,7.77,0,0,1,.52-1.7,8,8,0,0,1,.87-1.56,8.71,8.71,0,0,1,1.18-1.33,8.1,8.1,0,0,1,1.44-1,8.27,8.27,0,0,1,3.38-1,8.14,8.14,0,0,1,1.78,0c4.75.59,9.34,2.53,13.94,4a23.64,23.64,0,0,1,4,2.24l.69-1.47c-4.26-2-8.34-4.64-12.8-5.94-8.33-2.41-14.21-7.12-18.81-14.5-3.69-6-9-10.9-13.48-16.35a25.5,25.5,0,0,1-3.71-5.32c-1.94-4.29-.15-7.06,4.54-7.49a14.77,14.77,0,0,1,1.63,0c13.6-.2,13.35-.12,17.53,12.67a87.09,87.09,0,0,0,7.42,15.61c2.67,4.71,7.1,6.42,12.11,4,7.95-3.86,16.28-7.35,23.37-12.49,12.12-8.79,25-15.42,39.67-18.35,1.57-.32,3.17-.48,4.69-.69,8.23,20.33,3.18,46-11.9,61-7.12,7.09-16.25,10-25.72,12.19-6,1.38-12.07,2.53-18.09,3.85-2.77.61-3.68,2.19-4.34,5.2-1,4.4-3.66,8.42-5.41,12.68-.88,2.13-2.28,4.69-1.79,6.64,1.86,7.18,2.37,13.88-2.56,20.18C266.6,174,267.05,176,266.8,178.8Zm30.88-65.53c1.07-.19,2.13-.43,3.17-.72s2.07-.63,3.08-1,2-.83,3-1.32,1.9-1,2.81-1.61a30.81,30.81,0,0,0,2.65-1.87c.85-.67,1.67-1.38,2.45-2.13a31.09,31.09,0,0,0,2.23-2.36c.7-.82,1.37-1.67,2-2.56s1.19-1.8,1.72-2.75a31.36,31.36,0,0,0,1.45-2.9c.43-1,.82-2,1.15-3a30.78,30.78,0,0,0,.85-3.13c.23-1.06.41-2.13.54-3.2a31.66,31.66,0,0,0,.22-3.23,32.07,32.07,0,0,0-.1-3.25,31.29,31.29,0,0,0-.41-3.21c-1,3.45-2,6.64-3,10.25l-3.84-4.62c.27,3.23.49,5.7.69,8.21h-5.82c1.09,2.86,2,5.32,2.76,7.2L305,100.25l.44.74,6.37.32.6,1.76C307.42,106.53,302.46,110,297.68,113.27Zm-9.07-28.46L313.47,66C303.15,68.9,295.26,75.57,288.61,84.81Zm-27.2,54.63c3.58-6.37,5.94-13.7,14.51-16.28C268.72,121.27,264.31,126.44,261.41,139.44Z"/><g class="cls-7"><path class="cls-5" d="M120.19,50.26c5.35,12.12,1.94,22.86-10.06,27.95-16.32,6.9-18,6.66-27.23-8.29C72.09,52.38,76.86,26,93.34,12.6,99.69,7.42,107.57,4.15,115,.43c1.65-.82,5.36-.41,6.18.77,1.15,1.7,1.09,4.78.49,7-.53,1.91-2.71,3.32-3.83,5.14-3.86,6.26-8.79,12.18-11.1,19C102.49,44.73,107.45,50.58,120.19,50.26Z"/></g><path class="cls-5" d="M249.4,52.43c8.28-2.42,15.06-3.86,21.4-6.34,15.89-6.21,25.76-17.13,25.91-35.17,0-1.61,1.38-4.15,2.65-4.55s4,.61,5,1.88c7.88,9.67,9.07,20.82,5.69,32.38-6.36,21.7-22.72,32.89-43.2,38.9-2.19.65-6.94-2.07-8.16-4.39C255,68,252.51,60.26,249.4,52.43Z"/><path class="cls-5" d="M171.58,278.33c-24.86,7.23-61.47,1.38-77.63-29.92C82.9,227,81.56,204,82.54,180.59c.17-4.14.58-8.29.87-12.29,1.67,12,3,24.08,5.16,36a107.17,107.17,0,0,0,14.27,37.38c14.33,23.28,35.42,35.08,62.49,36.61C167.41,278.43,169.49,278.33,171.58,278.33Z"/><path class="cls-5" d="M270.63,263c-11.38,24.85-40.68,28.66-62.24,7.63,10.89,2.72,19.81-1.08,28.67-4.81C248,261.25,259.07,261.06,270.63,263Z"/><path class="cls-5" d="M190.76,58.91c-9.09-16.15-20-20.32-41.55-17.27,1.94-.79,3.85-1.65,5.82-2.35a8.38,8.38,0,0,1,3.17-.64c14.89.75,29.78,1.43,44.65,2.48,2.85.2,5.6,1.89,8.29,3.18C189.61,39.9,187.29,44.14,190.76,58.91Z"/><path class="cls-5" d="M230.77,183.51c9.41-3.64,18.65-1.74,26.93,0Z"/><path class="cls-8" d="M364.5,85.13V81.42a1.81,1.81,0,0,1,1.56-1.92,1.19,1.19,0,0,0,.37-.06,7.45,7.45,0,0,1,.94-.21l.48-.08.71-.1.71-.13V46.07a6.18,6.18,0,0,0-.71-.13l-.71-.1a3.47,3.47,0,0,1-.48-.09,2.87,2.87,0,0,1-.54-.1,2.6,2.6,0,0,0-.4-.08,1,1,0,0,0-.37-.07,1.81,1.81,0,0,1-1.56-2V39.86h17.91v3.69a1.81,1.81,0,0,1-1.58,2,1,1,0,0,0-.38.07,3.71,3.71,0,0,1-.93.18c-.17,0-.48.08-.92.15s-.75.12-1,.17V78.19h14.59c.12-1.67.2-2.56.25-2.69a1.35,1.35,0,0,1,1.45-1.18h3.38V85.13Z"/><path class="cls-8" d="M399.67,85.13V81.94a1.77,1.77,0,0,1,1.27-1.64c.71-.28,1.84-.76,3.42-1.44l15.27-39h8.66l15.34,39c1.56.68,2.71,1.16,3.43,1.44a1.62,1.62,0,0,1,1.19,1.64v3.19H433V81.94a1.78,1.78,0,0,1,1.25-1.64l.21-.07.46-.16c.19-.09.39-.17.6-.25l-.25-.71L433,73H415l-2.33,6.46-.17.38.58.25.46.16.21.07A1.78,1.78,0,0,1,415,81.94v3.19ZM417.13,67h13.73l-5.19-14.08c-.09-.21-.23-.56-.42-1.06s-.32-.91-.42-1.23-.38-1.26-.89-3c-.5,1.81-.79,2.81-.86,3s-.17.56-.27.83-.18.57-.29.86-.2.5-.25.66Z"/><path class="cls-8" d="M465.1,85.13V81.42a1.82,1.82,0,0,1,1.57-1.92l.12,0a1.18,1.18,0,0,1,.25,0,1.83,1.83,0,0,0,.4-.08,3.4,3.4,0,0,1,.54-.13l.48-.08.71-.1.71-.13V46.07a6.18,6.18,0,0,0-.71-.13l-.71-.1a3.2,3.2,0,0,1-.48-.09,2.87,2.87,0,0,1-.54-.1l-.4-.08-.25,0-.12,0a1.81,1.81,0,0,1-1.57-2V39.86h20.36a30.6,30.6,0,0,1,7.56.83,13.19,13.19,0,0,1,5.19,2.44,9.34,9.34,0,0,1,3,3.81,13,13,0,0,1,.91,5,10.34,10.34,0,0,1-.43,3.06,9.63,9.63,0,0,1-1.5,2.75,11.37,11.37,0,0,1-2.5,2.25,15.2,15.2,0,0,1-3.59,1.75q9.33,2.09,9.34,10.09a12.25,12.25,0,0,1-1.15,5.33,12.77,12.77,0,0,1-3.17,4.25A15.92,15.92,0,0,1,494,84.13a22.05,22.05,0,0,1-7,1Zm13.15-6.56h8.58a12,12,0,0,0,4-.57,6.3,6.3,0,0,0,2.5-1.52,5.28,5.28,0,0,0,1.38-2.16,7.75,7.75,0,0,0,.43-2.71,7.21,7.21,0,0,0-.5-2.63,5.12,5.12,0,0,0-1.45-2,7.53,7.53,0,0,0-2.59-1.25,14.7,14.7,0,0,0-3.79-.41h-8.52Zm0-19.13H485q4.35,0,6.52-1.54a5.72,5.72,0,0,0,2.21-5c0-2.3-.68-4-2-5s-3.39-1.5-6.25-1.5h-7.21Z"/><path class="cls-8" d="M505.45,85.13V81.42A1.81,1.81,0,0,1,507,79.5l.12,0a1.18,1.18,0,0,1,.25,0,1.73,1.73,0,0,0,.4-.08,3.4,3.4,0,0,1,.54-.13l.48-.08.71-.1.71-.13V46.07a6.18,6.18,0,0,0-.71-.13l-.71-.1a3.47,3.47,0,0,1-.48-.09,2.87,2.87,0,0,1-.54-.1,2.6,2.6,0,0,0-.4-.08l-.25,0-.12,0a1.81,1.81,0,0,1-1.56-2V39.86h33.29V51.75h-3.61a1.33,1.33,0,0,1-1.43-1.16c-.25-2-.41-3.3-.46-4H518.65V59.09H534v6.5H518.65V78.38h14.59c0-.68.21-2,.46-4a1.35,1.35,0,0,1,1.43-1.21h3.61v12Z"/><path class="cls-8" d="M541.36,85.13V81.42a1.81,1.81,0,0,1,1.56-1.92,1.19,1.19,0,0,0,.37-.06,7.45,7.45,0,0,1,.94-.21l.48-.08.71-.1.71-.13V46.07a6.18,6.18,0,0,0-.71-.13l-.71-.1a3.47,3.47,0,0,1-.48-.09,2.87,2.87,0,0,1-.54-.1,2.6,2.6,0,0,0-.4-.08,1,1,0,0,0-.37-.07,1.81,1.81,0,0,1-1.56-2V39.86h17.91v3.69a1.81,1.81,0,0,1-1.58,2,1,1,0,0,0-.38.07,3.82,3.82,0,0,1-.93.18c-.17,0-.48.08-.92.15s-.75.12-1,.17V78.19h14.58c.13-1.67.21-2.56.25-2.69a1.36,1.36,0,0,1,1.46-1.18h3.38V85.13Z"/><path class="cls-8" d="M576.72,85.13V81.42a1.81,1.81,0,0,1,1.56-1.92l.12,0a1.18,1.18,0,0,1,.25,0,1.83,1.83,0,0,0,.4-.08,3.4,3.4,0,0,1,.54-.13l.48-.08.71-.1.71-.13V46.07a6.18,6.18,0,0,0-.71-.13l-.71-.1a3.47,3.47,0,0,1-.48-.09,2.87,2.87,0,0,1-.54-.1,2.85,2.85,0,0,0-.4-.08,1,1,0,0,0-.37-.07,1.81,1.81,0,0,1-1.56-2V39.86h34.87V51.75H608a1.33,1.33,0,0,1-1.44-1.16c-.25-2-.41-3.3-.46-4H589.92V60h15.84v6.71H589.92V78.92l.69.13.73.1.48.08a3.24,3.24,0,0,1,.52.13,1.73,1.73,0,0,0,.4.08l.25,0,.14,0a1.81,1.81,0,0,1,1.56,1.92v3.71Z"/><path class="cls-8" d="M613.46,62.48a24.64,24.64,0,0,1,1.61-9.21,22.25,22.25,0,0,1,4.71-7.33A20.82,20.82,0,0,1,627,41.11a24.68,24.68,0,0,1,9.37-1.75,23.55,23.55,0,0,1,9.33,1.75A22,22,0,0,1,653,45.94a22.26,22.26,0,0,1,4.65,7.33,26,26,0,0,1,0,18.46A22.21,22.21,0,0,1,653,79.05a20.67,20.67,0,0,1-7.27,4.83,26.13,26.13,0,0,1-18.7,0,21,21,0,0,1-7.25-4.83,22.45,22.45,0,0,1-4.71-7.32A24.56,24.56,0,0,1,613.46,62.48Zm8.54,0a19.84,19.84,0,0,0,1,6.69,14,14,0,0,0,2.87,5,12.91,12.91,0,0,0,4.52,3.17,17.1,17.1,0,0,0,12,0,12.74,12.74,0,0,0,7.29-8.19,22.29,22.29,0,0,0,0-13.33,12.78,12.78,0,0,0-2.81-5,13.09,13.09,0,0,0-4.48-3.21,17.1,17.1,0,0,0-12,0,12.59,12.59,0,0,0-4.52,3.21,13.92,13.92,0,0,0-2.87,5A19.82,19.82,0,0,0,622,62.48Z"/><path class="cls-8" d="M661.49,85.13V81.42a1.81,1.81,0,0,1,1.57-1.92l.12,0a1.09,1.09,0,0,1,.25,0,7.07,7.07,0,0,1,.94-.21l.48-.08.71-.1.7-.13V46.07a5.58,5.58,0,0,0-.7-.13l-.71-.1a3.2,3.2,0,0,1-.48-.09,2.87,2.87,0,0,1-.54-.1,2.85,2.85,0,0,0-.4-.08l-.25,0-.12,0a1.81,1.81,0,0,1-1.57-2V39.86H679.6a29.9,29.9,0,0,1,7.93.94,14.59,14.59,0,0,1,5.4,2.7,10.48,10.48,0,0,1,3.1,4.13,12.87,12.87,0,0,1,1,5.25,14.14,14.14,0,0,1-.69,4.33,13.09,13.09,0,0,1-2,3.67,11.59,11.59,0,0,1-3.1,2.92,16.72,16.72,0,0,1-4.25,2,8.78,8.78,0,0,1,2.75,2.63l7.12,10.52,2,.31a3.32,3.32,0,0,1,.56.13,2.25,2.25,0,0,0,.48.08,2.26,2.26,0,0,1,.33,0l.17,0A1.81,1.81,0,0,1,702,81.42v3.71h-8.43a3.54,3.54,0,0,1-1.9-.44,4.64,4.64,0,0,1-1.25-1.25l-9.5-14.52a3.58,3.58,0,0,0-1.21-1.12,3.79,3.79,0,0,0-1.87-.4h-3.19V78.92l1,.17.91.14a2.8,2.8,0,0,1,.52.13,1.92,1.92,0,0,0,.42.08l.21,0a.66.66,0,0,0,.17,0,1.82,1.82,0,0,1,1.58,1.92v3.71ZM674.64,61.4h4.83a14.24,14.24,0,0,0,4.13-.63,7.76,7.76,0,0,0,2.93-1.62,6.37,6.37,0,0,0,1.67-2.5,8.52,8.52,0,0,0,.58-3.13,6.53,6.53,0,0,0-2.25-5.31q-2.21-1.85-6.93-1.85h-5Z"/><path class="cls-8" d="M704.09,50.59V39.86h37.65V50.59h-3.59a1.39,1.39,0,0,1-1.5-1.19,24,24,0,0,1-.33-2.58h-9.21v32.1l1,.17.83.14a2.85,2.85,0,0,1,.55.13,1.59,1.59,0,0,0,.39.08,1,1,0,0,1,.23,0l.15,0a1.83,1.83,0,0,1,1.62,1.92v3.71H714V81.42a1.82,1.82,0,0,1,1.6-1.92l.12,0a.85.85,0,0,1,.23,0,1.74,1.74,0,0,0,.42-.08,3,3,0,0,1,.52-.13l.83-.14,1-.17V46.77h-9.18c-.12,1.15-.22,2-.32,2.63a1.36,1.36,0,0,1-1.43,1.19Z"/><path class="cls-8" d="M743.76,85.13V81.94A1.77,1.77,0,0,1,745,80.3q1.07-.42,3.42-1.44l15.27-39h8.67l15.33,39c1.57.68,2.71,1.16,3.44,1.44a1.62,1.62,0,0,1,1.18,1.64v3.19H777.05V81.94a1.78,1.78,0,0,1,1.25-1.64l.21-.07.46-.16c.19-.09.39-.17.6-.25l-.25-.71L777.05,73h-18l-2.33,6.46-.17.38.59.25.45.16.21.07a1.77,1.77,0,0,1,1.25,1.64v3.19ZM761.22,67H775l-5.19-14.08-.42-1.06c-.18-.5-.32-.91-.41-1.23s-.39-1.26-.9-3c-.5,1.81-.79,2.81-.85,3l-.27.83c-.09.28-.19.57-.3.86s-.19.5-.25.66Z"/><path class="cls-8" d="M794.74,85.13V81.42a1.81,1.81,0,0,1,1.56-1.92l.13,0a1.09,1.09,0,0,1,.25,0,7.07,7.07,0,0,1,.94-.21l.48-.08.7-.1.71-.13V46.07a5.45,5.45,0,0,0-.71-.13l-.7-.1a3.2,3.2,0,0,1-.48-.09,3,3,0,0,1-.55-.1,2.56,2.56,0,0,0-.39-.08,1,1,0,0,0-.38-.07,1.81,1.81,0,0,1-1.56-2V39.86h17.92v3.69a1.81,1.81,0,0,1-1.59,2l-.16,0-.21,0a2.91,2.91,0,0,0-.42.08,3.89,3.89,0,0,1-.54.12l-.81.13-1,.17V78.92l1,.17.81.14a3,3,0,0,1,.54.13,1.92,1.92,0,0,0,.42.08l.21,0,.16,0a1.82,1.82,0,0,1,1.59,1.92v3.71Z"/><path class="cls-8" d="M815.13,85.13V81.42a1.81,1.81,0,0,1,1.56-1.92,1.19,1.19,0,0,0,.37-.06,7.45,7.45,0,0,1,.94-.21l.48-.08.71-.1.71-.13V46.07a6.18,6.18,0,0,0-.71-.13l-.71-.1a3.47,3.47,0,0,1-.48-.09,2.87,2.87,0,0,1-.54-.1,2.6,2.6,0,0,0-.4-.08l-.25,0-.12,0a1.81,1.81,0,0,1-1.56-2V39.86h9.14a3.88,3.88,0,0,1,.52,0l.42,0a1.23,1.23,0,0,1,.69.19,1.73,1.73,0,0,1,.58.39l.6.73L850.85,71.5c0-.25-.07-1-.16-2.14,0-.47-.06-1.15-.06-2V46.07c-2.64-.38-4-.57-4.07-.57a1.81,1.81,0,0,1-1.56-2V39.86h17.75v3.69a1.81,1.81,0,0,1-1.56,2l-.13,0-.23,0a2.44,2.44,0,0,0-.41.08,3.89,3.89,0,0,1-.54.12l-.84.13-1,.17V85.13h-4.37a4.12,4.12,0,0,1-1.65-.31,3.47,3.47,0,0,1-1.31-1.13l-23.67-30.1c.09.93.13,1.57.13,1.91s0,.52,0,.94,0,.72,0,.9V78.92l2.13.31,1.45.21.48.06a1.82,1.82,0,0,1,1.59,1.92v3.71Z"/><path class="cls-8" d="M864.94,85.13V81.42a1.81,1.81,0,0,1,1.56-1.92l.13,0a1.09,1.09,0,0,1,.25,0,1.69,1.69,0,0,0,.39-.08,3.48,3.48,0,0,1,.55-.13l.48-.08.7-.1.71-.13V46.07a5.45,5.45,0,0,0-.71-.13l-.7-.1a3.2,3.2,0,0,1-.48-.09,3,3,0,0,1-.55-.1,2.56,2.56,0,0,0-.39-.08l-.25,0-.13,0a1.81,1.81,0,0,1-1.56-2V39.86h33.29V51.75h-3.6a1.34,1.34,0,0,1-1.44-1.16c-.25-2-.41-3.3-.46-4H878.15V59.09H893.5v6.5H878.15V78.38h14.58c0-.68.21-2,.46-4a1.37,1.37,0,0,1,1.44-1.21h3.6v12Z"/><path class="cls-8" d="M386.49,144v-1.23a.46.46,0,0,1,.39-.5l1.61-.35V126c-.91-.17-1.44-.28-1.61-.33a.45.45,0,0,1-.39-.5v-1.23h8.41q5.33,0,6.65,3a5.33,5.33,0,0,1,.39,2,5,5,0,0,1-.22,1.69,4.43,4.43,0,0,1-.67,1.25,5.69,5.69,0,0,1-2.86,1.83q4.43.87,4.42,4.58a5.05,5.05,0,0,1-1.83,4.11,7.82,7.82,0,0,1-5.21,1.6Zm4.7-2.17h4.38l0,0q3.33,0,4.16-2.19a3.85,3.85,0,0,0,.25-1.46,3,3,0,0,0-1.08-2.44,5,5,0,0,0-3.33-.91h-4.34Zm0-8.91h3.59q3.38,0,4.21-2a4.76,4.76,0,0,0,.27-1.42,3,3,0,0,0-1.07-2.56,5.26,5.26,0,0,0-3.29-.86h-3.71Z"/><path class="cls-8" d="M404.23,139.89a10.58,10.58,0,0,1,0-6,6.72,6.72,0,0,1,1.37-2.3,6.43,6.43,0,0,1,2.15-1.45,7.8,7.8,0,0,1,5.6,0,6.33,6.33,0,0,1,2.15,1.45,6.22,6.22,0,0,1,1.33,2.3,9.74,9.74,0,0,1,0,6,5.9,5.9,0,0,1-3.48,3.75,8.09,8.09,0,0,1-5.6,0,6.16,6.16,0,0,1-2.15-1.46A6.57,6.57,0,0,1,404.23,139.89Zm2.12-3a9,9,0,0,0,.3,2.23,4.17,4.17,0,0,0,.77,1.69,3.31,3.31,0,0,0,1.29,1,4.69,4.69,0,0,0,1.85.39,3.57,3.57,0,0,0,3.13-1.39,6.85,6.85,0,0,0,1-4,6.76,6.76,0,0,0-1-3.94,3.57,3.57,0,0,0-3.13-1.4,4.66,4.66,0,0,0-1.85.34,3.15,3.15,0,0,0-1.29,1.06,4.21,4.21,0,0,0-.77,1.67A9.39,9.39,0,0,0,406.35,136.93Z"/><path class="cls-8" d="M418.33,131v-1.16h4.52v9a3.75,3.75,0,0,0,.73,2.5,2.84,2.84,0,0,0,2.25.87v0a5.1,5.1,0,0,0,3.83-2v-8.39c-.17,0-.7-.17-1.6-.34a.47.47,0,0,1-.42-.54v-1.18h4.5V142c.9.16,1.44.26,1.6.31a.48.48,0,0,1,.42.52V144h-3.5a.66.66,0,0,1-.67-.52l-.21-1.5a6.08,6.08,0,0,1-4.68,2.25,4.39,4.39,0,0,1-3.54-1.48,5.93,5.93,0,0,1-1.23-3.89v-7a15.44,15.44,0,0,1-1.57-.32A.48.48,0,0,1,418.33,131Z"/><path class="cls-8" d="M435.46,136.87a7.77,7.77,0,0,1,1.71-5.23,6.27,6.27,0,0,1,5-2.06,12.44,12.44,0,0,1,4.21,1v3.68h-1.13a.44.44,0,0,1-.48-.37c0-.07-.05-.42-.1-1.06l-.08-.94-.4-.11-.37-.08-.25-.06a11.38,11.38,0,0,0-1.57-.11,3.77,3.77,0,0,0-1.52.36,3.37,3.37,0,0,0-1.33,1,6.34,6.34,0,0,0-1.06,3.92,6.44,6.44,0,0,0,1.12,4,3.58,3.58,0,0,0,3,1.39,4.61,4.61,0,0,0,3.11-1.19.77.77,0,0,1,.56-.2.53.53,0,0,1,.44.2l.66.94a6.32,6.32,0,0,1-5.25,2.17,5.73,5.73,0,0,1-4.44-1.92A7.75,7.75,0,0,1,435.46,136.87Z"/><path class="cls-8" d="M448.21,124.55v-1.16H453v8.33a6.14,6.14,0,0,1,4.54-2.14,4.37,4.37,0,0,1,3.52,1.47,5.92,5.92,0,0,1,1.23,3.92v7c.83.16,1.36.27,1.6.33a.49.49,0,0,1,.42.54V144h-4.5v-9q0-3.39-3-3.39a5.13,5.13,0,0,0-3.81,2V142l.33,0,1.23.25a.53.53,0,0,1,.46.54V144H448.5V142.8a.49.49,0,0,1,.44-.54l1.56-.29V125.41c-1.06-.15-1.67-.26-1.84-.31A.52.52,0,0,1,448.21,124.55Z"/><path class="cls-8" d="M465.58,136.58a7.68,7.68,0,0,1,.48-2.73,6.9,6.9,0,0,1,1.32-2.23,5.82,5.82,0,0,1,2.1-1.5,6.58,6.58,0,0,1,2.75-.54h0a6.3,6.3,0,0,1,2.33.43,4.66,4.66,0,0,1,1.86,1.21,6,6,0,0,1,1.25,2,8.11,8.11,0,0,1,.43,2.69,1.47,1.47,0,0,1-.12.77.58.58,0,0,1-.5.21H468a7.58,7.58,0,0,0,.34,2.35,4.68,4.68,0,0,0,.95,1.63,3.55,3.55,0,0,0,1.4,1,5,5,0,0,0,1.79.33,5.64,5.64,0,0,0,1.63-.19,7.21,7.21,0,0,0,1.16-.48c.32-.15.6-.29.84-.43a1.06,1.06,0,0,1,.56-.23.54.54,0,0,1,.48.25l.71.91a4,4,0,0,1-1.13.94,6.19,6.19,0,0,1-1.37.71,12,12,0,0,1-1.5.39,10.1,10.1,0,0,1-1.55.13,7.29,7.29,0,0,1-2.72-.48,6.16,6.16,0,0,1-2.15-1.5,6.34,6.34,0,0,1-1.4-2.37A9.86,9.86,0,0,1,465.58,136.58Zm2.57-1.23h7.7a5,5,0,0,0-.25-1.57,3.91,3.91,0,0,0-.68-1.27,3.86,3.86,0,0,0-1.15-.79,3.92,3.92,0,0,0-1.54-.29l0,0a3.74,3.74,0,0,0-2.83,1A5,5,0,0,0,468.15,135.35Z"/><path class="cls-8" d="M479.73,144V142.8a.49.49,0,0,1,.42-.54l1.58-.29V131.85a12.54,12.54,0,0,1-1.58-.32.48.48,0,0,1-.42-.54v-1.16h3.44a.79.79,0,0,1,.52.12,1.25,1.25,0,0,1,.23.54l.17,2.21h0q1.56-3.16,4.33-3.17a3.71,3.71,0,0,1,1.92.5l-.32,1.88c-.07.25-.18.37-.35.37a2.2,2.2,0,0,1-.67-.14,3.94,3.94,0,0,0-1.14-.15c-1.64,0-2.86,1-3.65,3v7l.29.06.59.11.71.12a.49.49,0,0,1,.43.54V144Z"/><path class="cls-8" d="M491.7,144v-1.21a.48.48,0,0,1,.13-.33.58.58,0,0,1,.31-.19l1.62-.31v-10.1c-.93-.17-1.47-.26-1.62-.3a.47.47,0,0,1-.31-.18.55.55,0,0,1-.13-.36v-1.16h4.52v12.1l1.59.31a.67.67,0,0,1,.31.19.52.52,0,0,1,.12.33V144Zm1.52-18.6a1.55,1.55,0,0,1,.15-.71,2.09,2.09,0,0,1,.39-.58,1.87,1.87,0,0,1,.57-.4,1.58,1.58,0,0,1,.66-.13,1.67,1.67,0,0,1,.67.13,2,2,0,0,1,.56.4,2.34,2.34,0,0,1,.4.58,1.57,1.57,0,0,1,.16.71,1.43,1.43,0,0,1-.16.66,2.3,2.3,0,0,1-.4.57,2.14,2.14,0,0,1-.56.39,1.51,1.51,0,0,1-.67.13,1.44,1.44,0,0,1-.66-.13,1.87,1.87,0,0,1-1-1A1.32,1.32,0,0,1,493.22,125.37Z"/><path class="cls-8" d="M499.48,136.58a7.68,7.68,0,0,1,.48-2.73,6.88,6.88,0,0,1,1.31-2.23,5.86,5.86,0,0,1,2.11-1.5,6.58,6.58,0,0,1,2.75-.54h0a6.34,6.34,0,0,1,2.33.43,4.69,4.69,0,0,1,1.85,1.21,5.66,5.66,0,0,1,1.25,2,8.12,8.12,0,0,1,.44,2.69,1.47,1.47,0,0,1-.12.77.58.58,0,0,1-.5.21h-9.4a7.9,7.9,0,0,0,.33,2.35,4.7,4.7,0,0,0,1,1.63,3.55,3.55,0,0,0,1.4,1,5,5,0,0,0,1.79.33A5.52,5.52,0,0,0,508,142a6.91,6.91,0,0,0,1.17-.48c.32-.15.59-.29.83-.43a1.12,1.12,0,0,1,.57-.23.56.56,0,0,1,.48.25l.7.91a4,4,0,0,1-1.12.94,6,6,0,0,1-1.38.71,11.22,11.22,0,0,1-1.5.39,9.88,9.88,0,0,1-1.54.13,7.34,7.34,0,0,1-2.73-.48,6.22,6.22,0,0,1-2.14-1.5,6.09,6.09,0,0,1-1.4-2.37A9.86,9.86,0,0,1,499.48,136.58Zm2.56-1.23h7.71a5,5,0,0,0-.25-1.57,4.1,4.1,0,0,0-.69-1.27,3.69,3.69,0,0,0-1.14-.79,3.92,3.92,0,0,0-1.54-.29l0,0a3.73,3.73,0,0,0-2.83,1A5,5,0,0,0,502,135.35Z"/><path class="cls-8" d="M525.36,138.66a5.08,5.08,0,0,1,.36-1.86,6.24,6.24,0,0,1,.87-1.62,7.33,7.33,0,0,1,1.42-1.33,7.8,7.8,0,0,1,1.73-1,9.27,9.27,0,0,1-1.23-2.11,5.54,5.54,0,0,1-.42-2.1,5.11,5.11,0,0,1,.36-2,4.68,4.68,0,0,1,1.08-1.56,4.8,4.8,0,0,1,1.71-1,6.64,6.64,0,0,1,2.25-.36l-.13,0a5.79,5.79,0,0,1,2,.36,5.22,5.22,0,0,1,1.6.93,4.54,4.54,0,0,1,1,1.36,4.66,4.66,0,0,1,.46,1.62l-1.54.3-.07,0h-.08a.67.67,0,0,1-.33-.11c-.09,0-.16-.15-.23-.33a3.31,3.31,0,0,0-.31-.79,2.59,2.59,0,0,0-.52-.69,2.64,2.64,0,0,0-.84-.54,3.09,3.09,0,0,0-1.12-.21,3.31,3.31,0,0,0-1.29.23,2.84,2.84,0,0,0-1,.64,2.79,2.79,0,0,0-.61.92,3.25,3.25,0,0,0-.23,1.17,2.94,2.94,0,0,0,.15.94,4.82,4.82,0,0,0,.37.91c.09.14.29.45.61.92a7.93,7.93,0,0,0,.89,1l5.78,5.85a11.21,11.21,0,0,0,.83-2,10.8,10.8,0,0,0,.44-2.08.49.49,0,0,1,.16-.35.56.56,0,0,1,.4-.19h1.52a10.35,10.35,0,0,1-.5,3.17,12,12,0,0,1-1.4,2.89l4.19,4.25h-2.39a2.1,2.1,0,0,1-.69-.08,1.55,1.55,0,0,1-.56-.44l-2-2a10.91,10.91,0,0,1-3,2,9.35,9.35,0,0,1-3.79.71,6.79,6.79,0,0,1-2.16-.35,5.36,5.36,0,0,1-1.94-1.09,5.62,5.62,0,0,1-1.36-1.73A5.19,5.19,0,0,1,525.36,138.66Zm2.46-.17,0,0a3.4,3.4,0,0,0,.36,1.58,3.75,3.75,0,0,0,.85,1.17,3.85,3.85,0,0,0,1.27.75,4.27,4.27,0,0,0,1.42.23,6.48,6.48,0,0,0,2.81-.58,7.71,7.71,0,0,0,2.19-1.52l-5.92-5.94a6.06,6.06,0,0,0-2.23,1.89A4.16,4.16,0,0,0,527.82,138.49Z"/><path class="cls-8" d="M550.9,134a10.09,10.09,0,0,1,2.8-7.37,9.84,9.84,0,0,1,7.43-2.86l0,0a18.56,18.56,0,0,1,6.19,1.44v4.71H566a.56.56,0,0,1-.61-.53,8.35,8.35,0,0,1-.12-1.25c0-.2,0-.4-.07-.6s0-.34,0-.44v-.21a14,14,0,0,0-4.23-.75,6.89,6.89,0,0,0-5.21,2.11,9.33,9.33,0,0,0,0,11.62,6.41,6.41,0,0,0,5,2.07,8,8,0,0,0,2.65-.34,7.61,7.61,0,0,0,2.46-1.46.68.68,0,0,1,.45-.22.6.6,0,0,1,.44.16l1.06,1.19a9,9,0,0,1-7.2,3,8.94,8.94,0,0,1-6.94-2.85A10.54,10.54,0,0,1,550.9,134Z"/><path class="cls-8" d="M568.7,124.55v-1.16h4.81v8.33a6.16,6.16,0,0,1,4.54-2.14,4.37,4.37,0,0,1,3.52,1.47A5.92,5.92,0,0,1,582.8,135v7c.84.16,1.37.27,1.61.33a.49.49,0,0,1,.41.54V144h-4.5v-9q0-3.39-3-3.39a5.13,5.13,0,0,0-3.81,2V142l.34,0,1.22.25a.52.52,0,0,1,.46.54V144H569V142.8a.5.5,0,0,1,.44-.54L571,142V125.41c-1.06-.15-1.67-.26-1.83-.31A.52.52,0,0,1,568.7,124.55Z"/><path class="cls-8" d="M586.18,140.39a3,3,0,0,1,.46-1.63,4.32,4.32,0,0,1,1.52-1.39,8.68,8.68,0,0,1,2.67-1,19,19,0,0,1,4.08-.38v-1.08a3.77,3.77,0,0,0-.73-2.52,2.62,2.62,0,0,0-2.1-.86,4.28,4.28,0,0,0-1.52.25,6,6,0,0,0-1.07.5l-.83.5a1,1,0,0,1-.62.21.73.73,0,0,1-.44-.1.64.64,0,0,1-.29-.34l-.46-.79a8.34,8.34,0,0,1,2.54-1.66,7.3,7.3,0,0,1,3-.57,5.11,5.11,0,0,1,2.1.4,4.94,4.94,0,0,1,1.55,1.06,4.55,4.55,0,0,1,1,1.69,6.66,6.66,0,0,1,.32,2.17v7.08c.81.17,1.28.27,1.39.31v-.06a.46.46,0,0,1,.29.19.51.51,0,0,1,.13.35v1.19h-2.92a1.72,1.72,0,0,1-.58-.11q-.2,0-.27-.45l-.29-1.34c-.21.19-.59.49-1.13.92a4.45,4.45,0,0,1-1.1.67,7.78,7.78,0,0,1-1.25.43,6.66,6.66,0,0,1-1.5.13,4.37,4.37,0,0,1-1.5-.25,3.06,3.06,0,0,1-1.27-.67,3.51,3.51,0,0,1-.84-1.16A4.25,4.25,0,0,1,586.18,140.39Zm2.36-.11a2.38,2.38,0,0,0,.2.94,1.42,1.42,0,0,0,.48.67,2.39,2.39,0,0,0,.75.37,2.82,2.82,0,0,0,.92.15,4.94,4.94,0,0,0,1.17-.15,4.08,4.08,0,0,0,1-.37,5.56,5.56,0,0,0,.94-.61c.17-.15.45-.41.83-.79V137.6a18.59,18.59,0,0,0-2.92.18,8.81,8.81,0,0,0-2,.59,2.45,2.45,0,0,0-1.12.85A1.88,1.88,0,0,0,588.54,140.28Z"/><path class="cls-8" d="M600.81,144V142.8a.49.49,0,0,1,.42-.54l1.58-.29V131.85a12.54,12.54,0,0,1-1.58-.32.48.48,0,0,1-.42-.54v-1.16h3.44a.79.79,0,0,1,.52.12,1.14,1.14,0,0,1,.23.54l.17,2.21h0q1.56-3.16,4.33-3.17a3.71,3.71,0,0,1,1.92.5l-.31,1.88c-.08.25-.19.37-.36.37a2.26,2.26,0,0,1-.67-.14A3.94,3.94,0,0,0,609,132c-1.64,0-2.86,1-3.65,3v7l.29.06.59.11.71.12a.49.49,0,0,1,.43.54V144Z"/><path class="cls-8" d="M612.51,136.87a7.77,7.77,0,0,1,1.71-5.23,6.26,6.26,0,0,1,5-2.06,12.44,12.44,0,0,1,4.21,1v3.68h-1.13a.44.44,0,0,1-.48-.37c0-.07,0-.42-.1-1.06l-.08-.94-.4-.11-.38-.08-.25-.06a11.23,11.23,0,0,0-1.56-.11,3.77,3.77,0,0,0-1.52.36,3.37,3.37,0,0,0-1.33,1,6.34,6.34,0,0,0-1.06,3.92,6.44,6.44,0,0,0,1.12,4,3.58,3.58,0,0,0,3,1.39,4.57,4.57,0,0,0,3.1-1.19.81.81,0,0,1,.57-.2.5.5,0,0,1,.43.2l.67.94a6.34,6.34,0,0,1-5.25,2.17,5.7,5.7,0,0,1-4.44-1.92A7.75,7.75,0,0,1,612.51,136.87Z"/><path class="cls-8" d="M625,131v-1.16h4.53v9a3.75,3.75,0,0,0,.72,2.5,2.84,2.84,0,0,0,2.25.87v0a5.11,5.11,0,0,0,3.84-2v-8.39c-.17,0-.71-.17-1.61-.34a.47.47,0,0,1-.41-.54v-1.18h4.5V142c.9.16,1.43.26,1.6.31a.48.48,0,0,1,.42.52V144h-3.5a.65.65,0,0,1-.67-.52l-.21-1.5a6.08,6.08,0,0,1-4.68,2.25,4.42,4.42,0,0,1-3.55-1.48,6,6,0,0,1-1.23-3.89v-7a15.64,15.64,0,0,1-1.56-.32A.49.49,0,0,1,625,131Z"/><path class="cls-8" d="M641.91,131.35v-1l2.31-.34.57-4.37a.36.36,0,0,1,.16-.33.57.57,0,0,1,.4-.13h1.25v4.88h4.06v1.81H646.6v8.52a1.8,1.8,0,0,0,.42,1.33,1.51,1.51,0,0,0,1.14.42,2.64,2.64,0,0,0,.71-.1,3.4,3.4,0,0,0,.5-.23.55.55,0,0,1,.17-.11l.16-.12a1.27,1.27,0,0,1,.27-.11.51.51,0,0,1,.36.21l.71,1.19a5,5,0,0,1-1.54,1,6,6,0,0,1-1.9.31,3.44,3.44,0,0,1-2.56-.94,3.63,3.63,0,0,1-.9-2.69v-8.66h-1.71a.54.54,0,0,1-.39-.13C642,131.71,641.91,131.57,641.91,131.35Z"/><path class="cls-8" d="M652.25,136.58a7.47,7.47,0,0,1,.48-2.73,6.88,6.88,0,0,1,1.31-2.23,5.82,5.82,0,0,1,2.1-1.5,6.58,6.58,0,0,1,2.75-.54h0a6.26,6.26,0,0,1,2.33.43,4.66,4.66,0,0,1,1.86,1.21,5.81,5.81,0,0,1,1.25,2,8.12,8.12,0,0,1,.44,2.69,1.44,1.44,0,0,1-.13.77.56.56,0,0,1-.5.21h-9.39a7.59,7.59,0,0,0,.33,2.35,4.55,4.55,0,0,0,1,1.63,3.44,3.44,0,0,0,1.39,1,5.06,5.06,0,0,0,1.79.33,5.64,5.64,0,0,0,1.63-.19,6.91,6.91,0,0,0,1.17-.48c.31-.15.59-.29.83-.43a1.06,1.06,0,0,1,.56-.23.53.53,0,0,1,.48.25l.71.91a4,4,0,0,1-1.13.94,5.79,5.79,0,0,1-1.37.71,11.22,11.22,0,0,1-1.5.39,9.88,9.88,0,0,1-1.54.13,7.3,7.3,0,0,1-2.73-.48,6.35,6.35,0,0,1-2.15-1.5,6.2,6.2,0,0,1-1.39-2.37A9.61,9.61,0,0,1,652.25,136.58Zm2.56-1.23h7.71a5.31,5.31,0,0,0-.25-1.57,4.1,4.1,0,0,0-.69-1.27,3.62,3.62,0,0,0-1.15-.79,3.85,3.85,0,0,0-1.54-.29l0,0a3.76,3.76,0,0,0-2.83,1A5,5,0,0,0,654.81,135.35Z"/><path class="cls-8" d="M666.4,144V142.8a.49.49,0,0,1,.41-.54l1.59-.29V131.85a12.45,12.45,0,0,1-1.59-.32.47.47,0,0,1-.41-.54v-1.16h3.43a.79.79,0,0,1,.52.12,1,1,0,0,1,.23.54l.17,2.21h0c1-2.11,2.49-3.17,4.33-3.17a3.71,3.71,0,0,1,1.92.5l-.31,1.88c-.07.25-.19.37-.36.37a2.15,2.15,0,0,1-.66-.14,4.06,4.06,0,0,0-1.15-.15c-1.64,0-2.85,1-3.64,3v7l.29.06.58.11.71.12a.5.5,0,0,1,.44.54V144Z"/><path class="cls-8" d="M678.37,144v-1.21a.52.52,0,0,1,.12-.33.63.63,0,0,1,.31-.19l1.63-.31v-10.1c-.93-.17-1.48-.26-1.63-.3a.5.5,0,0,1-.31-.18.6.6,0,0,1-.12-.36v-1.16h4.52v12.1l1.58.31a.63.63,0,0,1,.31.19.48.48,0,0,1,.13.33V144Zm1.52-18.6a1.55,1.55,0,0,1,.14-.71,2.34,2.34,0,0,1,.4-.58,2,2,0,0,1,.56-.4,1.77,1.77,0,0,1,1.33,0,2.16,2.16,0,0,1,.57.4,2.33,2.33,0,0,1,.39.58,1.58,1.58,0,0,1,.17.71,1.44,1.44,0,0,1-.17.66,2,2,0,0,1-.39.57,2.39,2.39,0,0,1-.57.39,1.47,1.47,0,0,1-.66.13A1.48,1.48,0,0,1,681,127a2.14,2.14,0,0,1-.56-.39,1.87,1.87,0,0,1-.4-.57A1.32,1.32,0,0,1,679.89,125.37Z"/><path class="cls-8" d="M686.14,136.58a7.68,7.68,0,0,1,.48-2.73,7.08,7.08,0,0,1,1.32-2.23,5.82,5.82,0,0,1,2.1-1.5,6.58,6.58,0,0,1,2.75-.54h0a6.3,6.3,0,0,1,2.33.43,4.66,4.66,0,0,1,1.86,1.21,6,6,0,0,1,1.25,2,8.11,8.11,0,0,1,.43,2.69,1.47,1.47,0,0,1-.12.77.58.58,0,0,1-.5.21h-9.4a7.58,7.58,0,0,0,.34,2.35,4.68,4.68,0,0,0,.95,1.63,3.55,3.55,0,0,0,1.4,1,5,5,0,0,0,1.79.33,5.64,5.64,0,0,0,1.63-.19,6.54,6.54,0,0,0,1.16-.48c.32-.15.6-.29.84-.43a1.06,1.06,0,0,1,.56-.23.54.54,0,0,1,.48.25l.71.91a4,4,0,0,1-1.13.94,6,6,0,0,1-1.37.71,12,12,0,0,1-1.5.39,10.08,10.08,0,0,1-1.54.13,7.3,7.3,0,0,1-2.73-.48,6.25,6.25,0,0,1-2.15-1.5,6.34,6.34,0,0,1-1.4-2.37A9.86,9.86,0,0,1,686.14,136.58Zm2.57-1.23h7.71a5.31,5.31,0,0,0-.25-1.57,4.1,4.1,0,0,0-.69-1.27,3.62,3.62,0,0,0-1.15-.79,3.92,3.92,0,0,0-1.54-.29l0,0a3.76,3.76,0,0,0-2.83,1A5,5,0,0,0,688.71,135.35Z"/><path class="cls-8" d="M705.72,131.35v-1l2.31-.34.56-4.37a.37.37,0,0,1,.17-.33.57.57,0,0,1,.4-.13h1.25v4.88h4.06v1.81h-4.06v8.52a1.8,1.8,0,0,0,.41,1.33,1.55,1.55,0,0,0,1.15.42,2.64,2.64,0,0,0,.71-.1,3.94,3.94,0,0,0,.5-.23.47.47,0,0,1,.16-.11.76.76,0,0,0,.17-.12,1.27,1.27,0,0,1,.27-.11.51.51,0,0,1,.36.21l.7,1.19a4.85,4.85,0,0,1-1.54,1,5.89,5.89,0,0,1-1.89.31,3.46,3.46,0,0,1-2.57-.94,3.67,3.67,0,0,1-.89-2.69v-8.66h-1.71a.57.57,0,0,1-.4-.13C705.76,131.71,705.72,131.57,705.72,131.35Z"/><path class="cls-8" d="M716.45,144V142.8a.49.49,0,0,1,.42-.54l1.58-.29V131.85a12.1,12.1,0,0,1-1.58-.32.48.48,0,0,1-.42-.54v-1.16h3.44a.79.79,0,0,1,.52.12,1.25,1.25,0,0,1,.23.54l.16,2.21h0q1.56-3.16,4.33-3.17a3.71,3.71,0,0,1,1.92.5l-.32,1.88c-.07.25-.18.37-.35.37a2.15,2.15,0,0,1-.67-.14,4,4,0,0,0-1.14-.15c-1.64,0-2.86,1-3.65,3v7l.29.06.59.11.7.12a.49.49,0,0,1,.44.54V144Z"/><path class="cls-8" d="M728.23,140.39a3,3,0,0,1,.46-1.63,4.32,4.32,0,0,1,1.52-1.39,8.68,8.68,0,0,1,2.67-1A19,19,0,0,1,737,136v-1.08a3.77,3.77,0,0,0-.73-2.52,2.62,2.62,0,0,0-2.1-.86,4.28,4.28,0,0,0-1.52.25,6,6,0,0,0-1.07.5l-.83.5a1,1,0,0,1-.62.21.73.73,0,0,1-.44-.1.64.64,0,0,1-.29-.34l-.46-.79a8.34,8.34,0,0,1,2.54-1.66,7.3,7.3,0,0,1,3-.57,5.19,5.19,0,0,1,2.11.4,5,5,0,0,1,1.54,1.06,4.7,4.7,0,0,1,1,1.69,7,7,0,0,1,.31,2.17v7.08c.82.17,1.28.27,1.39.31v-.06a.51.51,0,0,1,.3.19.55.55,0,0,1,.12.35v1.19h-2.92a1.72,1.72,0,0,1-.58-.11c-.12,0-.22-.17-.27-.45l-.29-1.34c-.21.19-.59.49-1.13.92a4.45,4.45,0,0,1-1.1.67,7.78,7.78,0,0,1-1.25.43,6.66,6.66,0,0,1-1.5.13,4.37,4.37,0,0,1-1.5-.25,3.13,3.13,0,0,1-1.27-.67,3.51,3.51,0,0,1-.84-1.16A4.25,4.25,0,0,1,728.23,140.39Zm2.36-.11a2.38,2.38,0,0,0,.2.94,1.49,1.49,0,0,0,.48.67,2.39,2.39,0,0,0,.75.37,2.86,2.86,0,0,0,.92.15,4.88,4.88,0,0,0,1.17-.15,4.08,4.08,0,0,0,1-.37,5.56,5.56,0,0,0,.94-.61c.17-.15.45-.41.83-.79V137.6a18.68,18.68,0,0,0-2.92.18,8.81,8.81,0,0,0-2,.59,2.45,2.45,0,0,0-1.12.85A2,2,0,0,0,730.59,140.28Z"/><path class="cls-8" d="M742.53,136.93a8.07,8.07,0,0,1,1.65-5.27,5.46,5.46,0,0,1,4.5-2.13h0a5,5,0,0,1,3.87,1.69v-5.83c-1.08-.18-1.71-.29-1.87-.34a.45.45,0,0,1-.42-.5v-1.22H755v18.56a14.31,14.31,0,0,1,1.62.35.47.47,0,0,1,.4.5V144h-3.46a.65.65,0,0,1-.67-.54l-.25-1.71a5.93,5.93,0,0,1-4.75,2.42,4.65,4.65,0,0,1-3.89-1.86A8.66,8.66,0,0,1,742.53,136.93Zm2.56,0q0,4,2.07,4.92a4.18,4.18,0,0,0,1.56.27l0,0a4.63,4.63,0,0,0,3.79-2.17v-6.83a3.87,3.87,0,0,0-3.27-1.67,3.61,3.61,0,0,0-3.1,1.4A6.63,6.63,0,0,0,745.09,136.93Z"/><path class="cls-8" d="M758.53,144v-1.21a.53.53,0,0,1,.13-.33.63.63,0,0,1,.31-.19l1.63-.31v-10.1c-.94-.17-1.48-.26-1.63-.3a.5.5,0,0,1-.31-.18.61.61,0,0,1-.13-.36v-1.16h4.52v12.1l1.59.31a.63.63,0,0,1,.31.19.53.53,0,0,1,.13.33V144Zm1.52-18.6a1.55,1.55,0,0,1,.15-.71,2.34,2.34,0,0,1,.4-.58,2,2,0,0,1,.56-.4,1.77,1.77,0,0,1,1.33,0,2,2,0,0,1,.56.4,2.1,2.1,0,0,1,.4.58,1.58,1.58,0,0,1,.17.71,1.44,1.44,0,0,1-.17.66,1.87,1.87,0,0,1-.4.57,2.14,2.14,0,0,1-.56.39,1.47,1.47,0,0,1-.66.13,1.48,1.48,0,0,1-.67-.13,2.14,2.14,0,0,1-.56-.39,1.87,1.87,0,0,1-.4-.57A1.32,1.32,0,0,1,760.05,125.37Z"/><path class="cls-8" d="M766.13,131.35v-1l2.31-.34.56-4.37a.35.35,0,0,1,.17-.33.54.54,0,0,1,.39-.13h1.25v4.88h4.07v1.81h-4.07v8.52a1.8,1.8,0,0,0,.42,1.33,1.55,1.55,0,0,0,1.15.42,2.57,2.57,0,0,0,.7-.1,3,3,0,0,0,.5-.23.71.71,0,0,1,.17-.11l.17-.12a1.27,1.27,0,0,1,.27-.11.49.49,0,0,1,.35.21l.71,1.19a4.85,4.85,0,0,1-1.54,1,6,6,0,0,1-1.9.31,3.45,3.45,0,0,1-2.56-.94,3.62,3.62,0,0,1-.89-2.69v-8.66h-1.71a.57.57,0,0,1-.4-.13C766.17,131.71,766.13,131.57,766.13,131.35Z"/><path class="cls-8" d="M776.75,144v-1.21a.48.48,0,0,1,.13-.33.63.63,0,0,1,.31-.19l1.63-.31v-10.1c-.94-.17-1.48-.26-1.63-.3a.5.5,0,0,1-.31-.18.55.55,0,0,1-.13-.36v-1.16h4.52v12.1l1.59.31a.63.63,0,0,1,.31.19.52.52,0,0,1,.12.33V144Zm1.52-18.6a1.55,1.55,0,0,1,.15-.71,2.1,2.1,0,0,1,.4-.58,1.82,1.82,0,0,1,.56-.4,1.77,1.77,0,0,1,1.33,0,2,2,0,0,1,.56.4,2.34,2.34,0,0,1,.4.58,1.58,1.58,0,0,1,.17.71,1.44,1.44,0,0,1-.17.66,1.87,1.87,0,0,1-.4.57,2.14,2.14,0,0,1-.56.39,1.48,1.48,0,0,1-.67.13,1.47,1.47,0,0,1-.66-.13,2,2,0,0,1-.56-.39,1.87,1.87,0,0,1-.4-.57A1.32,1.32,0,0,1,778.27,125.37Z"/><path class="cls-8" d="M785,139.89a10.82,10.82,0,0,1,0-6,6.58,6.58,0,0,1,1.38-2.3,6.29,6.29,0,0,1,2.14-1.45,7.13,7.13,0,0,1,2.82-.52,7,7,0,0,1,2.79.52,5.91,5.91,0,0,1,3.48,3.75,9.74,9.74,0,0,1,0,6,6.25,6.25,0,0,1-1.34,2.29,6.12,6.12,0,0,1-2.14,1.46,7.42,7.42,0,0,1-2.79.5,7.51,7.51,0,0,1-2.82-.5,6,6,0,0,1-2.14-1.46A6.44,6.44,0,0,1,785,139.89Zm2.13-3a8.93,8.93,0,0,0,.29,2.23,4.31,4.31,0,0,0,.77,1.69,3.31,3.31,0,0,0,1.29,1,4.7,4.7,0,0,0,1.86.39,3.55,3.55,0,0,0,3.12-1.39,6.85,6.85,0,0,0,1-4,6.76,6.76,0,0,0-1-3.94,3.55,3.55,0,0,0-3.12-1.4,4.68,4.68,0,0,0-1.86.34,3.21,3.21,0,0,0-1.29,1.06,4.35,4.35,0,0,0-.77,1.67A9.37,9.37,0,0,0,787.16,136.93Z"/><path class="cls-8" d="M799.69,144V142.8a.49.49,0,0,1,.38-.54l1.62-.29V131.85c-.93-.17-1.47-.27-1.62-.32s-.38-.23-.38-.54v-1.16h3.46a.67.67,0,0,1,.69.5l.21,1.52v0a6.28,6.28,0,0,1,4.71-2.28,4.31,4.31,0,0,1,3.52,1.5,5.94,5.94,0,0,1,1.2,3.88v7a13,13,0,0,1,1.59.35.5.5,0,0,1,.46.52V144H811v-9c0-2.27-1-3.42-3-3.42a5.24,5.24,0,0,0-3.88,2v8.4l1.63.33a.49.49,0,0,1,.43.54V144Z"/><path class="cls-8" d="M817.17,144V142.8a.49.49,0,0,1,.38-.54l1.62-.29V131.85c-.93-.17-1.47-.27-1.62-.32s-.38-.23-.38-.54v-1.16h3.46a.66.66,0,0,1,.69.5l.21,1.52v0a6.28,6.28,0,0,1,4.71-2.28,4.31,4.31,0,0,1,3.52,1.5,5.94,5.94,0,0,1,1.21,3.88v7a12.64,12.64,0,0,1,1.58.35.5.5,0,0,1,.46.52V144h-4.54v-9c0-2.27-1-3.42-3-3.42a5.26,5.26,0,0,0-3.88,2v8.4l1.63.33a.49.49,0,0,1,.43.54V144Z"/><path class="cls-8" d="M834.26,136.58a7.68,7.68,0,0,1,.48-2.73,6.88,6.88,0,0,1,1.31-2.23,5.86,5.86,0,0,1,2.11-1.5,6.55,6.55,0,0,1,2.75-.54h0a6.35,6.35,0,0,1,2.34.43,4.69,4.69,0,0,1,1.85,1.21,5.66,5.66,0,0,1,1.25,2,8.12,8.12,0,0,1,.44,2.69,1.34,1.34,0,0,1-.13.77.56.56,0,0,1-.5.21h-9.39a7.9,7.9,0,0,0,.33,2.35,4.55,4.55,0,0,0,1,1.63,3.48,3.48,0,0,0,1.4,1,5,5,0,0,0,1.79.33,5.57,5.57,0,0,0,1.62-.19,6.91,6.91,0,0,0,1.17-.48c.32-.15.59-.29.83-.43a1.09,1.09,0,0,1,.56-.23.53.53,0,0,1,.48.25l.71.91a4,4,0,0,1-1.12.94,6,6,0,0,1-1.38.71,11.22,11.22,0,0,1-1.5.39,9.88,9.88,0,0,1-1.54.13,7.3,7.3,0,0,1-2.73-.48,6.22,6.22,0,0,1-2.14-1.5,6.09,6.09,0,0,1-1.4-2.37A9.86,9.86,0,0,1,834.26,136.58Zm2.56-1.23h7.71a5,5,0,0,0-.25-1.57,4.1,4.1,0,0,0-.69-1.27,3.69,3.69,0,0,0-1.14-.79,3.92,3.92,0,0,0-1.54-.29l0,0a3.77,3.77,0,0,0-2.84,1A5.09,5.09,0,0,0,836.82,135.35Z"/><path class="cls-8" d="M848.35,144v-1.21a.48.48,0,0,1,.43-.52l1.59-.31V125.39a10.15,10.15,0,0,1-1.59-.34.46.46,0,0,1-.43-.5v-1.2h4.52v18.54a16.13,16.13,0,0,1,1.58.35.49.49,0,0,1,.44.52V144Z"/><path class="cls-8" d="M856.44,144v-1.21a.49.49,0,0,1,.44-.52l1.59-.31V125.39a10.15,10.15,0,0,1-1.59-.34.46.46,0,0,1-.44-.5v-1.2H861v18.54a16.13,16.13,0,0,1,1.58.35.49.49,0,0,1,.44.52V144Z"/><path class="cls-8" d="M864.21,136.58a7.68,7.68,0,0,1,.48-2.73,6.88,6.88,0,0,1,1.31-2.23,5.86,5.86,0,0,1,2.11-1.5,6.55,6.55,0,0,1,2.75-.54h-.05a6.35,6.35,0,0,1,2.34.43,4.69,4.69,0,0,1,1.85,1.21,5.66,5.66,0,0,1,1.25,2,8.12,8.12,0,0,1,.44,2.69,1.34,1.34,0,0,1-.13.77.55.55,0,0,1-.5.21h-9.39a7.9,7.9,0,0,0,.33,2.35,4.55,4.55,0,0,0,1,1.63,3.48,3.48,0,0,0,1.4,1,5,5,0,0,0,1.79.33,5.57,5.57,0,0,0,1.62-.19,6.91,6.91,0,0,0,1.17-.48c.32-.15.59-.29.83-.43a1.09,1.09,0,0,1,.57-.23.53.53,0,0,1,.47.25l.71.91a4,4,0,0,1-1.12.94,6,6,0,0,1-1.38.71,11.22,11.22,0,0,1-1.5.39,9.88,9.88,0,0,1-1.54.13,7.34,7.34,0,0,1-2.73-.48,6.22,6.22,0,0,1-2.14-1.5,6.09,6.09,0,0,1-1.4-2.37A9.86,9.86,0,0,1,864.21,136.58Zm2.56-1.23h7.71a5,5,0,0,0-.25-1.57,4.1,4.1,0,0,0-.69-1.27,3.69,3.69,0,0,0-1.14-.79,3.92,3.92,0,0,0-1.54-.29l0,0a3.77,3.77,0,0,0-2.84,1A5.09,5.09,0,0,0,866.77,135.35Z"/><path class="cls-8" d="M559.21,283a15.74,15.74,0,0,1-.56-4.54,16.11,16.11,0,0,1,.56-4.59,10,10,0,0,1,1.52-3.16,6.19,6.19,0,0,1,2.34-1.9,7.07,7.07,0,0,1,5.7,0,6.37,6.37,0,0,1,2.32,1.9,9.39,9.39,0,0,1,1.54,3.16,15.3,15.3,0,0,1,.6,4.57h0a15.84,15.84,0,0,1-.56,4.56,9.48,9.48,0,0,1-1.54,3.19,6.2,6.2,0,0,1-2.32,1.87,7.07,7.07,0,0,1-5.7,0,6.33,6.33,0,0,1-2.34-1.87A10,10,0,0,1,559.21,283Zm2-4.56a16.44,16.44,0,0,0,.4,3.85,7.24,7.24,0,0,0,1,2.54,4.18,4.18,0,0,0,1.52,1.33,4,4,0,0,0,3.58,0,4.13,4.13,0,0,0,1.5-1.37,6.72,6.72,0,0,0,1-2.5,17.09,17.09,0,0,0,.38-3.85v0a17.38,17.38,0,0,0-.38-3.86,6.72,6.72,0,0,0-1-2.5,4.19,4.19,0,0,0-1.52-1.37,4,4,0,0,0-1.75-.42,4.08,4.08,0,0,0-1.79.42,4.19,4.19,0,0,0-1.52,1.37,6.72,6.72,0,0,0-1,2.48A16.41,16.41,0,0,0,561.21,278.39Z"/><path class="cls-8" d="M574.79,283.36l1.06-.43a1.32,1.32,0,0,1,.6-.13.86.86,0,0,1,.48.13.73.73,0,0,1,.31.37.06.06,0,0,0,0,.06.14.14,0,0,1,0,.07.17.17,0,0,0,0,.08l0,.06a3.18,3.18,0,0,0,.23.5q.17.31.21.42a2.87,2.87,0,0,0,.77,1,5.52,5.52,0,0,0,1.21.71,3.92,3.92,0,0,0,1.72.35,5,5,0,0,0,1.86-.33,3.76,3.76,0,0,0,1.33-.9,3.47,3.47,0,0,0,.77-1.23,3.81,3.81,0,0,0,.29-1.33,5.31,5.31,0,0,0-.22-1.48,2.68,2.68,0,0,0-.8-1.17,3.54,3.54,0,0,0-1.56-.73,10.42,10.42,0,0,0-2.56-.29v-1.81a8.61,8.61,0,0,0,2.19-.31,3.81,3.81,0,0,0,1.43-.73,2.7,2.7,0,0,0,.86-1.09,4.1,4.1,0,0,0,.25-1.41,4.61,4.61,0,0,0-.25-1.52,2.5,2.5,0,0,0-.79-1.07,3.74,3.74,0,0,0-1.13-.62,5,5,0,0,0-1.39-.21,4.21,4.21,0,0,0-1.4.21,4.94,4.94,0,0,0-1.15.62,3.57,3.57,0,0,0-.83,1,4.07,4.07,0,0,0-.52,1.19.89.89,0,0,1-.33.6,1.08,1.08,0,0,1-.59.15h-.33l-1.29-.21a6.79,6.79,0,0,1,.75-2.44,6.71,6.71,0,0,1,1.44-1.75,6.38,6.38,0,0,1,2-1.1,8.13,8.13,0,0,1,2.42-.35H582a8.36,8.36,0,0,1,2.36.33,4.89,4.89,0,0,1,1.85,1.06,5,5,0,0,1,1.21,1.61,5.14,5.14,0,0,1,.44,2.08,5.59,5.59,0,0,1-.25,1.71,4.32,4.32,0,0,1-.69,1.31,4,4,0,0,1-1.13,1,6.18,6.18,0,0,1-1.45.64,5.58,5.58,0,0,1,3,1.73,4.62,4.62,0,0,1,1,3.05,6,6,0,0,1-.52,2.5,5.75,5.75,0,0,1-1.39,1.87,7.12,7.12,0,0,1-2.13,1.21,8.57,8.57,0,0,1-2.6.39,8.12,8.12,0,0,1-2.71-.37,5.77,5.77,0,0,1-1.94-1.13,5.56,5.56,0,0,1-1.29-1.64A11.09,11.09,0,0,1,574.79,283.36Z"/><path class="cls-8" d="M595.76,283a5,5,0,0,1,1-3.21,5.5,5.5,0,0,1,2.85-1.79,4.58,4.58,0,0,1-3.16-4.56,5.24,5.24,0,0,1,.41-2.07,5,5,0,0,1,1.23-1.66,5.77,5.77,0,0,1,1.94-1.13,7.32,7.32,0,0,1,2.5-.41,7.06,7.06,0,0,1,2.44.41,6.17,6.17,0,0,1,1.92,1.13,4.63,4.63,0,0,1,1.22,1.66,5.11,5.11,0,0,1,.44,2.07,4.63,4.63,0,0,1-.79,2.77,5,5,0,0,1-2.37,1.79,5.45,5.45,0,0,1,2.85,1.77,4.93,4.93,0,0,1,1,3.19,5.19,5.19,0,0,1-.5,2.37,5.25,5.25,0,0,1-1.38,1.79,6.33,6.33,0,0,1-2.12,1.13,8.88,8.88,0,0,1-2.71.37l-.06.07a8.73,8.73,0,0,1-2.71-.38,6.58,6.58,0,0,1-2.15-1.14,5.17,5.17,0,0,1-1.87-4.17Zm2.54-.06a3.83,3.83,0,0,0,.27,1.52,3.47,3.47,0,0,0,.84,1.21,3.88,3.88,0,0,0,1.35.77,5.63,5.63,0,0,0,1.73.25l-.06,0a5.83,5.83,0,0,0,1.79-.27,3.67,3.67,0,0,0,2.12-2,3.93,3.93,0,0,0,.32-1.54,4.51,4.51,0,0,0-.34-1.75,3.06,3.06,0,0,0-.91-1.21,3.73,3.73,0,0,0-1.36-.69,6.29,6.29,0,0,0-1.56-.19,6.52,6.52,0,0,0-1.61.19,3.77,3.77,0,0,0-1.33.69,3.16,3.16,0,0,0-.94,1.21A4.64,4.64,0,0,0,598.3,282.93Zm.5-9.42a6.37,6.37,0,0,0,.21,1.35,3,3,0,0,0,.62,1.15,2.89,2.89,0,0,0,1.13.81,4.16,4.16,0,0,0,1.67.29h0a4.1,4.1,0,0,0,1.67-.29,3.11,3.11,0,0,0,1.17-.81,3.2,3.2,0,0,0,.62-1.15,5.55,5.55,0,0,0,.17-1.35,3.41,3.41,0,0,0-.21-1.27,3.47,3.47,0,0,0-.69-1.1,3.29,3.29,0,0,0-1.12-.73,4.93,4.93,0,0,0-1.56-.23,5,5,0,0,0-1.57.23,3.1,3.1,0,0,0-1.14.73,3.32,3.32,0,0,0-.71,1.1A3.41,3.41,0,0,0,598.8,273.51Z"/><path class="cls-8" d="M610.67,281.3l9.75-12.91h2.31V281.2h3v1.41a.65.65,0,0,1-.13.38.46.46,0,0,1-.39.17h-2.5v5.25h-2.21v-5.25h-8.88a.71.71,0,0,1-.47-.17.94.94,0,0,1-.28-.4Zm2.68-.1h7.17v-8.67c0-.18,0-.32,0-.42a4.76,4.76,0,0,1,.08-.83Z"/><path class="cls-8" d="M633.09,274.41a6,6,0,0,1,1.9-4.48,6.79,6.79,0,0,1,2.06-1.34,6.93,6.93,0,0,1,2.69-.5,6.73,6.73,0,0,1,2.62.48,6.36,6.36,0,0,1,2,1.34,6.14,6.14,0,0,1,1.27,2,7,7,0,0,1,.46,2.66,7.58,7.58,0,0,1-.18,1.65,8.38,8.38,0,0,1-.44,1.52c-.12.28-.36.76-.73,1.44a15,15,0,0,1-1,1.52l-4.92,7a1.22,1.22,0,0,1-.5.46,1.77,1.77,0,0,1-.79.17H635.3l6.1-8c.06-.09.16-.21.3-.38l.33-.37a3.55,3.55,0,0,1,.25-.36c.11-.16.19-.28.25-.35a6.36,6.36,0,0,1-1.75.89,6.27,6.27,0,0,1-2.06.34,6,6,0,0,1-2.15-.4,4.46,4.46,0,0,1-1.77-1.12,5.54,5.54,0,0,1-1.23-1.77A6.27,6.27,0,0,1,633.09,274.41Zm2.79-1.77a4.77,4.77,0,0,0-.29,1.62,5.4,5.4,0,0,0,.27,1.67,3.29,3.29,0,0,0,.79,1.29,3.06,3.06,0,0,0,1.28.77,5,5,0,0,0,1.62.29,4.61,4.61,0,0,0,1.79-.33,3.77,3.77,0,0,0,1.29-.9,3.67,3.67,0,0,0,.8-1.25,4.86,4.86,0,0,0,.27-1.5v.06a5.14,5.14,0,0,0-.27-1.7,3.68,3.68,0,0,0-.84-1.3,3.59,3.59,0,0,0-1.27-.81,4.27,4.27,0,0,0-1.58-.31,4.53,4.53,0,0,0-1.69.31,3.94,3.94,0,0,0-1.31.81A3.7,3.7,0,0,0,635.88,272.64Z"/><path class="cls-8" d="M647.69,274.41a6,6,0,0,1,1.9-4.48,6.79,6.79,0,0,1,2.06-1.34,6.93,6.93,0,0,1,2.69-.5,6.73,6.73,0,0,1,2.62.48,6.36,6.36,0,0,1,2,1.34,6.14,6.14,0,0,1,1.27,2,7,7,0,0,1,.46,2.66,7.58,7.58,0,0,1-.18,1.65,8.38,8.38,0,0,1-.44,1.52c-.12.28-.36.76-.73,1.44a15,15,0,0,1-1,1.52l-4.92,7a1.22,1.22,0,0,1-.5.46,1.77,1.77,0,0,1-.79.17H649.9l6.1-8c.06-.09.16-.21.3-.38l.33-.37a3.55,3.55,0,0,1,.25-.36c.11-.16.19-.28.25-.35a6.36,6.36,0,0,1-1.75.89,6.27,6.27,0,0,1-2.06.34,6,6,0,0,1-2.15-.4,4.46,4.46,0,0,1-1.77-1.12,5.54,5.54,0,0,1-1.23-1.77A6.27,6.27,0,0,1,647.69,274.41Zm2.79-1.77a4.77,4.77,0,0,0-.29,1.62,5.4,5.4,0,0,0,.27,1.67,3.29,3.29,0,0,0,.79,1.29,3.06,3.06,0,0,0,1.28.77,5,5,0,0,0,1.62.29,4.61,4.61,0,0,0,1.79-.33,3.77,3.77,0,0,0,1.29-.9,3.67,3.67,0,0,0,.8-1.25,4.86,4.86,0,0,0,.27-1.5v.06a5.14,5.14,0,0,0-.27-1.7,3.68,3.68,0,0,0-.84-1.3,3.59,3.59,0,0,0-1.27-.81,4.27,4.27,0,0,0-1.58-.31,4.53,4.53,0,0,0-1.69.31,3.94,3.94,0,0,0-1.31.81A3.7,3.7,0,0,0,650.48,272.64Z"/><path class="cls-8" d="M669.07,283a15.74,15.74,0,0,1-.56-4.54,16.11,16.11,0,0,1,.56-4.59,10,10,0,0,1,1.52-3.16,6.19,6.19,0,0,1,2.34-1.9,7.07,7.07,0,0,1,5.7,0,6.37,6.37,0,0,1,2.32,1.9,9.39,9.39,0,0,1,1.54,3.16,15.3,15.3,0,0,1,.6,4.57h0a15.84,15.84,0,0,1-.56,4.56,9.48,9.48,0,0,1-1.54,3.19,6.2,6.2,0,0,1-2.32,1.87,7.07,7.07,0,0,1-5.7,0,6.33,6.33,0,0,1-2.34-1.87A10,10,0,0,1,669.07,283Zm2-4.56a16.44,16.44,0,0,0,.4,3.85,7.24,7.24,0,0,0,1,2.54,4.18,4.18,0,0,0,1.52,1.33,4,4,0,0,0,3.58,0,4.13,4.13,0,0,0,1.5-1.37,6.72,6.72,0,0,0,1-2.5,17.09,17.09,0,0,0,.38-3.85v0a17.38,17.38,0,0,0-.38-3.86,6.72,6.72,0,0,0-1-2.5,4.19,4.19,0,0,0-1.52-1.37,4,4,0,0,0-1.75-.42,4.08,4.08,0,0,0-1.79.42,4.19,4.19,0,0,0-1.52,1.37,6.72,6.72,0,0,0-1,2.48A16.41,16.41,0,0,0,671.07,278.39Z"/><path class="cls-8" d="M684.79,283a5,5,0,0,1,1-3.21,5.49,5.49,0,0,1,2.86-1.79,4.58,4.58,0,0,1-3.17-4.56,5.25,5.25,0,0,1,.42-2.07,4.78,4.78,0,0,1,1.23-1.66,5.72,5.72,0,0,1,1.93-1.13,7.36,7.36,0,0,1,2.5-.41,7.06,7.06,0,0,1,2.44.41,6.05,6.05,0,0,1,1.92,1.13,4.55,4.55,0,0,1,1.23,1.66,5.26,5.26,0,0,1,.43,2.07,4.63,4.63,0,0,1-.79,2.77,5,5,0,0,1-2.37,1.79,5.41,5.41,0,0,1,2.85,1.77,4.93,4.93,0,0,1,1,3.19,5.06,5.06,0,0,1-.5,2.37,5.35,5.35,0,0,1-1.37,1.79,6.29,6.29,0,0,1-2.13,1.13,8.88,8.88,0,0,1-2.71.37l-.06.07a8.73,8.73,0,0,1-2.71-.38,6.43,6.43,0,0,1-2.14-1.14,5.26,5.26,0,0,1-1.4-1.8A5.33,5.33,0,0,1,684.79,283Zm2.54-.06a3.83,3.83,0,0,0,.27,1.52,3.61,3.61,0,0,0,.84,1.21,3.88,3.88,0,0,0,1.35.77,5.68,5.68,0,0,0,1.73.25l-.06,0a5.83,5.83,0,0,0,1.79-.27,3.37,3.37,0,0,0,1.29-.79,3.6,3.6,0,0,0,.84-1.17,4.11,4.11,0,0,0,.31-1.54,4.51,4.51,0,0,0-.34-1.75,3,3,0,0,0-.91-1.21,3.73,3.73,0,0,0-1.36-.69,6.29,6.29,0,0,0-1.56-.19,6.44,6.44,0,0,0-1.6.19,3.73,3.73,0,0,0-1.34.69,3.13,3.13,0,0,0-.93,1.21A4.45,4.45,0,0,0,687.33,282.93Zm.5-9.42a6.37,6.37,0,0,0,.21,1.35,3.08,3.08,0,0,0,.63,1.15,2.78,2.78,0,0,0,1.12.81,4.16,4.16,0,0,0,1.67.29h0a4,4,0,0,0,1.66-.29,3,3,0,0,0,1.17-.81,3.42,3.42,0,0,0,.63-1.15,5.54,5.54,0,0,0,.16-1.35,3.41,3.41,0,0,0-.21-1.27,3.29,3.29,0,0,0-.68-1.1,3.43,3.43,0,0,0-1.13-.73,5.41,5.41,0,0,0-3.12,0,3.06,3.06,0,0,0-1.15.73,3.48,3.48,0,0,0-.71,1.1A3.41,3.41,0,0,0,687.83,273.51Z"/><path class="cls-8" d="M705.6,286.55l.75-1.06a.86.86,0,0,1,.67-.4,1.37,1.37,0,0,1,.67.23,4.09,4.09,0,0,0,.83.48,6.29,6.29,0,0,0,1.17.48,5.38,5.38,0,0,0,1.62.23,5,5,0,0,0,1.9-.35,4,4,0,0,0,1.41-1,4.66,4.66,0,0,0,.94-1.48,5.26,5.26,0,0,0,.31-1.94,5.62,5.62,0,0,0-.25-1.69,3,3,0,0,0-.83-1.29,3.72,3.72,0,0,0-1.4-.83,5.94,5.94,0,0,0-1.91-.27,11.91,11.91,0,0,0-1.59.1c-.36.06-.91.19-1.66.4l-1.56-.46,1.62-9.33h9.5v1l0,.06a1.14,1.14,0,0,1-.36.85,1.48,1.48,0,0,1-1.1.34H710l-.9,5.25a15.23,15.23,0,0,1,2.9-.34,7.57,7.57,0,0,1,2.77.48,6,6,0,0,1,2,1.25,5.59,5.59,0,0,1,1.23,2,6.59,6.59,0,0,1,.43,2.4,6.44,6.44,0,0,1-.56,2.85,7.71,7.71,0,0,1-1.54,2.23,7,7,0,0,1-2.27,1.4,8.28,8.28,0,0,1-2.85.45,10.76,10.76,0,0,1-1.71-.14A6.78,6.78,0,0,1,708,288a7.18,7.18,0,0,1-1.29-.67A8.24,8.24,0,0,1,705.6,286.55Z"/><path class="cls-8" d="M719.84,283.36l1.06-.43a1.33,1.33,0,0,1,.61-.13.86.86,0,0,1,.48.13.79.79,0,0,1,.31.37.08.08,0,0,0,0,.06.14.14,0,0,1,0,.07l0,.08s0,.05,0,.06.12.28.23.5l.21.42a3,3,0,0,0,.77,1,6,6,0,0,0,1.21.71,3.93,3.93,0,0,0,1.73.35,5,5,0,0,0,1.85-.33,3.8,3.8,0,0,0,1.34-.9,3.61,3.61,0,0,0,.77-1.23,4.06,4.06,0,0,0,.29-1.33,5.34,5.34,0,0,0-.23-1.48,2.65,2.65,0,0,0-.79-1.17,3.66,3.66,0,0,0-1.56-.73,10.51,10.51,0,0,0-2.57-.29v-1.81a8.55,8.55,0,0,0,2.19-.31,3.78,3.78,0,0,0,1.44-.73,2.59,2.59,0,0,0,.85-1.09,3.88,3.88,0,0,0,.25-1.41,4.37,4.37,0,0,0-.25-1.52,2.35,2.35,0,0,0-.79-1.07,3.69,3.69,0,0,0-1.12-.62,5.12,5.12,0,0,0-1.4-.21,4.19,4.19,0,0,0-1.39.21,4.75,4.75,0,0,0-1.15.62,3.4,3.4,0,0,0-.83,1,4.07,4.07,0,0,0-.52,1.19.86.86,0,0,1-.34.6,1,1,0,0,1-.58.15h-.33l-1.3-.21a7.21,7.21,0,0,1,.75-2.44,6.71,6.71,0,0,1,1.44-1.75,6.43,6.43,0,0,1,2-1.1,8,8,0,0,1,2.42-.35H727a8.29,8.29,0,0,1,2.35.33,5.12,5.12,0,0,1,3.07,2.67,5.13,5.13,0,0,1,.43,2.08,5.3,5.3,0,0,1-.25,1.71,4.09,4.09,0,0,1-.68,1.31,4.15,4.15,0,0,1-1.13,1,6.26,6.26,0,0,1-1.46.64,5.65,5.65,0,0,1,3,1.73,4.67,4.67,0,0,1,1,3.05,6.11,6.11,0,0,1-.52,2.5,5.76,5.76,0,0,1-1.4,1.87,7,7,0,0,1-2.12,1.21,8.63,8.63,0,0,1-2.61.39,8.09,8.09,0,0,1-2.7-.37,5.67,5.67,0,0,1-1.94-1.13,5.4,5.4,0,0,1-1.29-1.64A11.14,11.14,0,0,1,719.84,283.36Z"/><path class="cls-8" d="M431.61,325.43l.68-1a.76.76,0,0,1,.61-.37,1.08,1.08,0,0,1,.58.23,8,8,0,0,0,.77.41,4.94,4.94,0,0,0,1.07.42,4.32,4.32,0,0,0,1.45.23,4.63,4.63,0,0,0,1.73-.31,3.45,3.45,0,0,0,1.27-.9,3.91,3.91,0,0,0,.86-1.33,5.54,5.54,0,0,0,0-3.29,2.52,2.52,0,0,0-.75-1.17,3.66,3.66,0,0,0-1.25-.75,5.35,5.35,0,0,0-1.75-.25,13.07,13.07,0,0,0-1.42.08c-.33.06-.84.19-1.52.38l-1.39-.42L434,309h8.61v1l0,.06a1,1,0,0,1-.32.75,1.38,1.38,0,0,1-1,.32h-5.7l-.82,4.75a13.46,13.46,0,0,1,2.61-.29,7.2,7.2,0,0,1,2.52.41,5.47,5.47,0,0,1,1.81,1.15,4.8,4.8,0,0,1,1.1,1.77,5.74,5.74,0,0,1,.4,2.17,5.93,5.93,0,0,1-.52,2.58,6.47,6.47,0,0,1-1.4,2,6.07,6.07,0,0,1-2,1.27,7.35,7.35,0,0,1-2.58.42,8.83,8.83,0,0,1-1.54-.15,6.25,6.25,0,0,1-1.38-.4,8.77,8.77,0,0,1-2.12-1.31Z"/><path class="cls-8" d="M444.49,322.54l1-.4a1.47,1.47,0,0,1,.56-.1.77.77,0,0,1,.42.1.56.56,0,0,1,.27.35.08.08,0,0,0,0,.05.05.05,0,0,1,0,.06.11.11,0,0,0,0,.06.39.39,0,0,1,0,.06c0,.1.11.25.2.44l.21.4a2.59,2.59,0,0,0,.69.85,5,5,0,0,0,1.08.67,3.79,3.79,0,0,0,1.59.31,4.2,4.2,0,0,0,1.64-.31,3.47,3.47,0,0,0,1.23-.81,3.08,3.08,0,0,0,.71-1.11,3.72,3.72,0,0,0,.25-1.21,4.6,4.6,0,0,0-.21-1.33,2.11,2.11,0,0,0-.71-1.06,3.71,3.71,0,0,0-1.41-.67,9.76,9.76,0,0,0-2.34-.25V317a7.63,7.63,0,0,0,2-.27,3.81,3.81,0,0,0,1.32-.66,2.37,2.37,0,0,0,.77-1,3.69,3.69,0,0,0,.23-1.29,4.08,4.08,0,0,0-.23-1.38,2.23,2.23,0,0,0-.71-1,3.71,3.71,0,0,0-1-.56,4.83,4.83,0,0,0-1.27-.19,3.91,3.91,0,0,0-1.25.19,4.66,4.66,0,0,0-1.05.56,3.29,3.29,0,0,0-.77.86,3.76,3.76,0,0,0-.45,1.1.74.74,0,0,1-.3.52.91.91,0,0,1-.52.15h-.31l-1.17-.19a6.17,6.17,0,0,1,.69-2.21A5.55,5.55,0,0,1,447,310.1a5.47,5.47,0,0,1,1.77-1,6.77,6.77,0,0,1,2.17-.33H451a7.17,7.17,0,0,1,2.13.31,4.5,4.5,0,0,1,1.67,1,4.81,4.81,0,0,1,1.1,1.45,4.7,4.7,0,0,1,.4,1.88,5,5,0,0,1-.23,1.56,3.48,3.48,0,0,1-.63,1.19,3.78,3.78,0,0,1-1,.85,5.8,5.8,0,0,1-1.31.59,5.18,5.18,0,0,1,2.66,1.56,4.19,4.19,0,0,1,.9,2.77,5.28,5.28,0,0,1-.48,2.25,4.81,4.81,0,0,1-1.27,1.69,6,6,0,0,1-1.92,1.1,7.56,7.56,0,0,1-2.35.36,7.67,7.67,0,0,1-2.46-.34,5.49,5.49,0,0,1-1.75-1,4.81,4.81,0,0,1-1.14-1.5A10.29,10.29,0,0,1,444.49,322.54Z"/><path class="cls-8" d="M458.48,325.56a1.38,1.38,0,0,1,.13-.57,1.13,1.13,0,0,1,.29-.43,1.47,1.47,0,0,1,.46-.32,1.71,1.71,0,0,1,.6-.14,1.52,1.52,0,0,1,.71.17,1.47,1.47,0,0,1,.48.37,1.51,1.51,0,0,1,.29.58,2.79,2.79,0,0,1,.1.69,5.66,5.66,0,0,1-.14,1.19,7.86,7.86,0,0,1-.46,1.21,6,6,0,0,1-.77,1.16,8.45,8.45,0,0,1-1,1.09l-.38-.4a.51.51,0,0,1-.14-.35.48.48,0,0,1,.14-.34,4.31,4.31,0,0,0,.36-.37l.39-.52a3.48,3.48,0,0,0,.38-.67,4.27,4.27,0,0,0,.23-.81H460a1.34,1.34,0,0,1-.6-.11,1.21,1.21,0,0,1-.46-.33,1.27,1.27,0,0,1-.29-.48,1.47,1.47,0,0,1-.11-.64Z"/><path class="cls-8" d="M468.65,327.1v-1a.39.39,0,0,1,.33-.4l1-.29L476.58,309h2.48l6.55,16.42,1,.29a.4.4,0,0,1,.33.4v1h-5.21v-1a.38.38,0,0,1,.36-.4l1-.29-1.44-3.65H473.9l-1.42,3.65,1,.29a.37.37,0,0,1,.33.4v1Zm5.91-7.15H481l-2.68-7a10.93,10.93,0,0,1-.57-1.68c-.21.76-.37,1.33-.5,1.7Z"/><path class="cls-8" d="M487.93,315.39v-1.1h5.75v1.1a.44.44,0,0,1-.38.48.83.83,0,0,1-.25,0l-.5.08-.64.13,2.71,6.87a12,12,0,0,1,.45,1.84c.21-.88.38-1.49.5-1.84l2.73-6.87a.67.67,0,0,0-.27-.06l-.52-.09-.64-.12a.45.45,0,0,1-.38-.5v-1.06h5.69v1.12a.43.43,0,0,1-.38.46l-1.23.25-4.5,11h-2l-4.48-11a2.67,2.67,0,0,0-.68-.17l-.3,0-.18,0-.09,0A.43.43,0,0,1,487.93,315.39Z"/><path class="cls-8" d="M503.13,320.41a7.07,7.07,0,0,1,.43-2.48,6.66,6.66,0,0,1,1.19-2,6,6,0,0,1,1.9-1.35,6.16,6.16,0,0,1,2.5-.48h0a5.91,5.91,0,0,1,2.13.39,4.29,4.29,0,0,1,1.67,1.09,5.4,5.4,0,0,1,1.12,1.81,7.23,7.23,0,0,1,.4,2.42,1.39,1.39,0,0,1-.11.7.5.5,0,0,1-.46.19h-8.5a6.8,6.8,0,0,0,.32,2.13,3.89,3.89,0,0,0,.85,1.46,3.1,3.1,0,0,0,1.27.89,4.37,4.37,0,0,0,1.63.31,5.41,5.41,0,0,0,1.46-.16,10.22,10.22,0,0,0,1.06-.44,8.32,8.32,0,0,0,.75-.4,1.14,1.14,0,0,1,.52-.2.53.53,0,0,1,.44.22l.62.84a3.55,3.55,0,0,1-1,.85,5.93,5.93,0,0,1-1.23.63,12.26,12.26,0,0,1-1.37.37,10.57,10.57,0,0,1-1.38.11,6.72,6.72,0,0,1-2.48-.44,5.32,5.32,0,0,1-1.94-1.36,5.79,5.79,0,0,1-1.27-2.14A8.78,8.78,0,0,1,503.13,320.41Zm2.33-1.1h7a4.54,4.54,0,0,0-.23-1.42,3.57,3.57,0,0,0-.61-1.15,2.9,2.9,0,0,0-1-.72,3.38,3.38,0,0,0-1.39-.28l0,0a3.4,3.4,0,0,0-2.54.94A4.67,4.67,0,0,0,505.46,319.31Z"/><path class="cls-8" d="M515.94,327.1V326q0-.42.33-.48l1.48-.27v-9.15c-.84-.15-1.34-.25-1.48-.29s-.33-.22-.33-.5v-1.06h3.13a.59.59,0,0,1,.6.45l.21,1.4v0a5.64,5.64,0,0,1,4.25-2.06,3.9,3.9,0,0,1,3.19,1.35,5.4,5.4,0,0,1,1.08,3.5v6.31a13.93,13.93,0,0,1,1.46.32.44.44,0,0,1,.39.48v1.08h-4.1V319c0-2.05-.9-3.08-2.69-3.08a4.67,4.67,0,0,0-3.48,1.79v7.58l1.46.32a.43.43,0,0,1,.4.48v1.06Z"/><path class="cls-8" d="M531.23,315.35v-1.06h4.11v8.14a3.47,3.47,0,0,0,.66,2.29,2.53,2.53,0,0,0,2,.77v.05a4.59,4.59,0,0,0,3.45-1.77v-7.61c-.15-.05-.63-.15-1.43-.29a.44.44,0,0,1-.38-.48v-1.1h4.06v11a13.73,13.73,0,0,1,1.44.29.45.45,0,0,1,.4.46v1.08H542.4a.58.58,0,0,1-.6-.48l-.19-1.35a5.54,5.54,0,0,1-4.25,2,3.91,3.91,0,0,1-3.19-1.34,5.34,5.34,0,0,1-1.12-3.52v-6.33a14.42,14.42,0,0,1-1.42-.29A.45.45,0,0,1,531.23,315.35Z"/><path class="cls-8" d="M546.71,320.41a7.07,7.07,0,0,1,.44-2.48,6.46,6.46,0,0,1,1.19-2,6,6,0,0,1,1.89-1.35,6.23,6.23,0,0,1,2.5-.48h0a6,6,0,0,1,2.13.39,4.25,4.25,0,0,1,1.66,1.09,5.43,5.43,0,0,1,1.13,1.81,7.23,7.23,0,0,1,.39,2.42,1.43,1.43,0,0,1-.1.7.5.5,0,0,1-.46.19h-8.5a6.81,6.81,0,0,0,.31,2.13,3.91,3.91,0,0,0,.86,1.46,3.1,3.1,0,0,0,1.27.89,4.32,4.32,0,0,0,1.62.31,5.31,5.31,0,0,0,1.46-.16,9.39,9.39,0,0,0,1.06-.44,6.26,6.26,0,0,0,.75-.4,1.19,1.19,0,0,1,.52-.2.52.52,0,0,1,.44.22l.63.84a3.55,3.55,0,0,1-1,.85,6.47,6.47,0,0,1-1.23.63,12.34,12.34,0,0,1-1.38.37,10.3,10.3,0,0,1-1.37.11,6.68,6.68,0,0,1-2.48-.44,5.23,5.23,0,0,1-1.94-1.36,5.79,5.79,0,0,1-1.27-2.14A8.52,8.52,0,0,1,546.71,320.41Zm2.33-1.1h7a4.54,4.54,0,0,0-.23-1.42,3.58,3.58,0,0,0-.6-1.15,2.9,2.9,0,0,0-1-.72,3.43,3.43,0,0,0-1.4-.28l0,0a3.41,3.41,0,0,0-2.54.94A4.8,4.8,0,0,0,549,319.31Z"/><path class="cls-8" d="M564.78,327a4.78,4.78,0,0,1,.27-1.79.56.56,0,0,1,.41-.14,2.09,2.09,0,0,1,.61.1,3.56,3.56,0,0,0,1,.12v.05q3.49,0,3.5-4.4V310.83c-1-.17-1.56-.27-1.69-.31a.42.42,0,0,1-.35-.48V309h6.31V310a.44.44,0,0,1-.4.48l-1.41.27v10c0,3.1-1.1,5.1-3.3,6a5.83,5.83,0,0,1-2.35.44A10.17,10.17,0,0,1,564.78,327Z"/><path class="cls-8" d="M575.77,320.41a6.85,6.85,0,0,1,.44-2.48,6.45,6.45,0,0,1,1.18-2,6,6,0,0,1,1.9-1.35,6.19,6.19,0,0,1,2.5-.48h0a5.9,5.9,0,0,1,2.12.39,4.29,4.29,0,0,1,1.67,1.09,5.4,5.4,0,0,1,1.12,1.81,7.23,7.23,0,0,1,.4,2.42,1.57,1.57,0,0,1-.1.7.51.51,0,0,1-.46.19H578a6.81,6.81,0,0,0,.31,2.13,4,4,0,0,0,.85,1.46,3.13,3.13,0,0,0,1.28.89,4.28,4.28,0,0,0,1.62.31,5.41,5.41,0,0,0,1.46-.16,10.22,10.22,0,0,0,1.06-.44,8.32,8.32,0,0,0,.75-.4,1.19,1.19,0,0,1,.52-.2.53.53,0,0,1,.44.22l.62.84a3.41,3.41,0,0,1-1,.85,5.93,5.93,0,0,1-1.23.63,11.71,11.71,0,0,1-1.37.37,10.44,10.44,0,0,1-1.38.11,6.67,6.67,0,0,1-2.47-.44,5.23,5.23,0,0,1-1.94-1.36,5.66,5.66,0,0,1-1.27-2.14A8.52,8.52,0,0,1,575.77,320.41Zm2.33-1.1h7a4.54,4.54,0,0,0-.23-1.42,3.58,3.58,0,0,0-.6-1.15,2.9,2.9,0,0,0-1-.72,3.43,3.43,0,0,0-1.4-.28l0,0a3.41,3.41,0,0,0-2.54.94A4.67,4.67,0,0,0,578.1,319.31Z"/><path class="cls-8" d="M588.31,323.87a2.67,2.67,0,0,1,.42-1.48,4,4,0,0,1,1.35-1.27,8.47,8.47,0,0,1,2.44-.9,17.63,17.63,0,0,1,3.69-.33v-1a3.47,3.47,0,0,0-.65-2.27,2.39,2.39,0,0,0-1.91-.77,3.83,3.83,0,0,0-1.38.23,4.84,4.84,0,0,0-1,.44l-.75.45a.86.86,0,0,1-.58.21.68.68,0,0,1-.4-.1.93.93,0,0,1-.25-.31l-.41-.71a7.76,7.76,0,0,1,2.29-1.52,6.66,6.66,0,0,1,2.73-.5,4.86,4.86,0,0,1,1.91.35,4.35,4.35,0,0,1,1.4,1,4.12,4.12,0,0,1,.88,1.52,6.82,6.82,0,0,1,.27,2v6.39c.73.16,1.15.25,1.27.3v-.07a.62.62,0,0,1,.25.19.43.43,0,0,1,.1.29v1.11H597.4a1.31,1.31,0,0,1-.52-.11c-.12,0-.2-.16-.25-.41l-.28-1.21-1,.83a4,4,0,0,1-1,.61,6.59,6.59,0,0,1-1.12.37,6.32,6.32,0,0,1-1.38.13,4.84,4.84,0,0,1-1.37-.21,3.36,3.36,0,0,1-1.13-.61,3.36,3.36,0,0,1-1-2.58Zm2.13-.1a2.16,2.16,0,0,0,.19.85,1.6,1.6,0,0,0,.43.6,2,2,0,0,0,.67.34,3,3,0,0,0,.83.12,5.16,5.16,0,0,0,1.07-.12,4.22,4.22,0,0,0,.93-.34,4.36,4.36,0,0,0,.86-.56c.15-.12.4-.36.75-.71v-2.62a18.44,18.44,0,0,0-2.65.16,8.46,8.46,0,0,0-1.75.55,2.06,2.06,0,0,0-1,.77A1.73,1.73,0,0,0,590.44,323.77Z"/><path class="cls-8" d="M601.56,327.1V326q0-.42.33-.48l1.48-.27v-9.15c-.85-.15-1.35-.25-1.48-.29s-.33-.22-.33-.5v-1.06h3.12a.6.6,0,0,1,.61.45l.2,1.4v0a5.64,5.64,0,0,1,4.25-2.06,3.89,3.89,0,0,1,3.19,1.35,5.4,5.4,0,0,1,1.08,3.5v6.31a13.93,13.93,0,0,1,1.46.32.45.45,0,0,1,.4.48v1.08h-4.11V319c0-2.05-.89-3.08-2.68-3.08a4.67,4.67,0,0,0-3.48,1.79v7.58l1.46.32a.43.43,0,0,1,.39.48v1.06Z"/><path class="cls-8" d="M622.62,327a5,5,0,0,1,.27-1.79.57.57,0,0,1,.42-.14,2,2,0,0,1,.6.1,3.56,3.56,0,0,0,1,.12v.05q3.5,0,3.5-4.4V310.83c-1-.17-1.56-.27-1.69-.31a.42.42,0,0,1-.35-.48V309h6.31V310a.43.43,0,0,1-.39.48l-1.42.27v10c0,3.1-1.1,5.1-3.29,6a5.92,5.92,0,0,1-2.36.44A10.22,10.22,0,0,1,622.62,327Z"/><path class="cls-8" d="M633.71,323.87a2.67,2.67,0,0,1,.42-1.48,3.91,3.91,0,0,1,1.36-1.27,8.3,8.3,0,0,1,2.43-.9,17.63,17.63,0,0,1,3.69-.33v-1a3.47,3.47,0,0,0-.65-2.27,2.39,2.39,0,0,0-1.91-.77,3.83,3.83,0,0,0-1.38.23,4.84,4.84,0,0,0-1,.44L636,317a.86.86,0,0,1-.58.21.63.63,0,0,1-.39-.1.73.73,0,0,1-.25-.31l-.42-.71a7.89,7.89,0,0,1,2.29-1.52,6.66,6.66,0,0,1,2.73-.5,5,5,0,0,1,1.92.35,4.41,4.41,0,0,1,1.39,1,4.12,4.12,0,0,1,.88,1.52,6.82,6.82,0,0,1,.27,2v6.39c.73.16,1.15.25,1.27.3v-.07a.56.56,0,0,1,.25.19.43.43,0,0,1,.1.29v1.11H642.8a1.31,1.31,0,0,1-.52-.11c-.12,0-.2-.16-.25-.41l-.27-1.21-1,.83a4.33,4.33,0,0,1-1,.61,7,7,0,0,1-1.13.37,6.29,6.29,0,0,1-1.37.13,4.85,4.85,0,0,1-1.38-.21,2.84,2.84,0,0,1-1.87-1.67A3.49,3.49,0,0,1,633.71,323.87Zm2.13-.1a2.16,2.16,0,0,0,.19.85,1.6,1.6,0,0,0,.43.6,2,2,0,0,0,.67.34,3,3,0,0,0,.83.12,5.16,5.16,0,0,0,1.07-.12,4.22,4.22,0,0,0,.93-.34,4.09,4.09,0,0,0,.86-.56c.15-.12.4-.36.75-.71v-2.62a18.44,18.44,0,0,0-2.65.16,8.46,8.46,0,0,0-1.75.55,2.1,2.1,0,0,0-1,.77A1.73,1.73,0,0,0,635.84,323.77Z"/><path class="cls-8" d="M646.44,315.35v-1.06h4.1v8.14a3.42,3.42,0,0,0,.67,2.29,2.49,2.49,0,0,0,2,.77v.05a4.62,4.62,0,0,0,3.46-1.77v-7.61c-.16-.05-.64-.15-1.44-.29a.44.44,0,0,1-.38-.48v-1.1h4.07v11a13.9,13.9,0,0,1,1.43.29.45.45,0,0,1,.4.46v1.08H657.6a.59.59,0,0,1-.6-.48l-.19-1.35a5.52,5.52,0,0,1-4.25,2,3.92,3.92,0,0,1-3.19-1.34,5.34,5.34,0,0,1-1.12-3.52v-6.33a14.42,14.42,0,0,1-1.42-.29A.45.45,0,0,1,646.44,315.35Z"/><path class="cls-8" d="M662.29,327.1V326c0-.28.11-.44.35-.48l1.46-.27v-9.15c-.82-.15-1.31-.25-1.46-.29s-.35-.22-.35-.5v-1.06h3.1a.69.69,0,0,1,.48.12,1.2,1.2,0,0,1,.21.48l.15,2h0c.94-1.92,2.24-2.87,3.89-2.87a3.33,3.33,0,0,1,1.75.45l-.29,1.69c-.06.23-.16.34-.31.34a2.66,2.66,0,0,1-.61-.13,4.07,4.07,0,0,0-1-.12c-1.49,0-2.58.89-3.29,2.68v6.34l.27.06.52.08.65.13a.43.43,0,0,1,.39.48v1.06Z"/><path class="cls-8" d="M672.84,320.41a6.94,6.94,0,0,1,.41-2.48,5.91,5.91,0,0,1,1.21-2,5.59,5.59,0,0,1,1.88-1.33,5.81,5.81,0,0,1,2.52-.5h-.05a5.91,5.91,0,0,1,2.13.39,4.29,4.29,0,0,1,1.67,1.09,5.4,5.4,0,0,1,1.12,1.81,7.23,7.23,0,0,1,.4,2.42,1.19,1.19,0,0,1-.13.7.48.48,0,0,1-.44.19H675a6.73,6.73,0,0,0,.34,2.13,4,4,0,0,0,.83,1.46,3.1,3.1,0,0,0,1.27.89,4.4,4.4,0,0,0,1.65.31,5.41,5.41,0,0,0,1.46-.16,10.22,10.22,0,0,0,1.06-.44,5,5,0,0,0,.73-.4,1.16,1.16,0,0,1,.54-.2.43.43,0,0,1,.39.22l.67.84a3.55,3.55,0,0,1-1,.85,6.86,6.86,0,0,1-1.25.63c-.57.18-1,.3-1.37.37a10.59,10.59,0,0,1-1.4.11,6.65,6.65,0,0,1-2.46-.44,5.6,5.6,0,0,1-1.92-1.36,5.79,5.79,0,0,1-1.27-2.14A8.78,8.78,0,0,1,672.84,320.41Zm2.31-1.1h7a4.76,4.76,0,0,0-.21-1.42,3.18,3.18,0,0,0-.63-1.15,2.9,2.9,0,0,0-1-.72,3.35,3.35,0,0,0-1.37-.28v0a3.39,3.39,0,0,0-2.55.94A4.47,4.47,0,0,0,675.15,319.31Zm.33-10.54h2.13a1.23,1.23,0,0,1,.62.1,1.08,1.08,0,0,1,.38.44l1.87,3.06h-1.27a1.12,1.12,0,0,1-.46-.08.92.92,0,0,1-.31-.27Z"/><path class="cls-8" d="M685.79,326.6v-3.36h.92a.37.37,0,0,1,.37.32v.21c0,.11,0,.3.06.58s.07.55.09.81a5.62,5.62,0,0,0,2.62.52,3,3,0,0,0,2-.62,1.77,1.77,0,0,0,.67-1.29,1.54,1.54,0,0,0-.32-1.07,2.36,2.36,0,0,0-.75-.62,4.88,4.88,0,0,0-1.06-.4c-1.25-.4-2-.67-2.35-.81a5.36,5.36,0,0,1-1.15-.71,2.89,2.89,0,0,1-1.06-2.37A3.28,3.28,0,0,1,687,315.2a5.23,5.23,0,0,1,3.6-1.12h0a10.76,10.76,0,0,1,3.33.71v3.27h-1a.41.41,0,0,1-.43-.36s0-.07,0-.18,0-.33-.07-.61,0-.58-.08-.87a8.74,8.74,0,0,0-2-.3h0a2.72,2.72,0,0,0-1.75.59,1.46,1.46,0,0,0-.69,1.14,1.33,1.33,0,0,0,.32,1,2.94,2.94,0,0,0,1.45.88l.78.23.79.25,1.23.46a4.48,4.48,0,0,1,1.06.64,2.75,2.75,0,0,1,1,2.25,3.67,3.67,0,0,1-1.25,2.92,5,5,0,0,1-3.4,1.19A13.09,13.09,0,0,1,685.79,326.6Z"/><path class="cls-8" d="M701.59,321.89a5,5,0,0,1,.25-1.58,3.24,3.24,0,0,1,.67-1.21,3.1,3.1,0,0,1,1.06-.79,3.5,3.5,0,0,1,1.48-.27,4,4,0,0,1,1.29.2s.46.16,1.27.46c.25.09.63.24,1.15.46a2.52,2.52,0,0,0,1,.19,1.63,1.63,0,0,0,1.27-.5,2.21,2.21,0,0,0,.48-1.44h1.81a5.26,5.26,0,0,1-.21,1.54,3.59,3.59,0,0,1-.67,1.21,3.07,3.07,0,0,1-1.08.81,3.46,3.46,0,0,1-1.44.27,4.46,4.46,0,0,1-1.33-.18l-1.25-.46-1.15-.46a2.69,2.69,0,0,0-1-.23,1.68,1.68,0,0,0-1.31.56,2.09,2.09,0,0,0-.48,1.42Z"/><path class="cls-8" d="M720.68,327.1V326a.41.41,0,0,1,.38-.45l1.46-.32V310.79a11.18,11.18,0,0,1-1.46-.3.41.41,0,0,1-.38-.45v-1.11h7.63q4.83,0,6,2.75a4.87,4.87,0,0,1,.35,1.79,4.28,4.28,0,0,1-.21,1.52,3.47,3.47,0,0,1-.6,1.15,5.17,5.17,0,0,1-2.58,1.65c2.66.53,4,1.91,4,4.14a4.59,4.59,0,0,1-1.67,3.73,7.09,7.09,0,0,1-4.71,1.44Zm4.29-2h3.94l0,0c2,0,3.26-.65,3.77-2a3.79,3.79,0,0,0,.21-1.31,2.76,2.76,0,0,0-1-2.23,4.6,4.6,0,0,0-3-.81H725Zm0-8.06h3.23c2,0,3.3-.61,3.8-1.81a4,4,0,0,0,.27-1.28,2.76,2.76,0,0,0-1-2.33,4.83,4.83,0,0,0-3-.77H725Z"/><path class="cls-8" d="M736.66,327.1V326a.42.42,0,0,1,.36-.48l1.45-.27V310.83c-.82-.15-1.3-.26-1.45-.31a.42.42,0,0,1-.36-.48V309h13v4.38h-1.21a.49.49,0,0,1-.54-.42s0-.11,0-.25,0-.38-.08-.71-.06-.65-.07-1H741v6h6.67v1.92H741v6.21h6.79c.1-1.11.15-1.71.15-1.81,0-.28.23-.42.56-.42h1.21v4.21Z"/><path class="cls-8" d="M751.51,327.1V326a.45.45,0,0,1,.11-.32.35.35,0,0,1,.25-.16l1.45-.3V310.79c-.82-.14-1.3-.23-1.45-.27a.41.41,0,0,1-.25-.15.49.49,0,0,1-.11-.33V309h6.06V310a.5.5,0,0,1-.12.33.46.46,0,0,1-.27.15l-.77.16-.65.11V325h6.52a11.06,11.06,0,0,1,.15-1.44.42.42,0,0,1,.19-.29.48.48,0,0,1,.33-.13h1.25v3.94Z"/><path class="cls-8" d="M765.93,327.1V326c0-.28.11-.44.35-.48l1.46-.27V310.83c-.82-.15-1.31-.26-1.46-.31a.42.42,0,0,1-.35-.48V309h13.41v4.38h-1.22a.44.44,0,0,1-.5-.42s0-.11,0-.25,0-.38-.08-.71-.06-.65-.08-1h-7.19v6.36h6.87v2h-6.87v6l.25.06.52.08.65.13a.44.44,0,0,1,.39.48v1.06Z"/><path class="cls-8" d="M781,321.81a11.08,11.08,0,0,1,0-7.48,8.36,8.36,0,0,1,1.83-2.94,8.26,8.26,0,0,1,2.83-1.94,9.39,9.39,0,0,1,3.63-.68,9.62,9.62,0,0,1,3.67.68,8.64,8.64,0,0,1,2.83,1.9,8.5,8.5,0,0,1,1.81,2.94,10.31,10.31,0,0,1,.65,3.75l0,.06a10.13,10.13,0,0,1-.65,3.71,8.37,8.37,0,0,1-1.83,2.93,8.18,8.18,0,0,1-2.79,1.9,9.67,9.67,0,0,1-3.67.71,9.43,9.43,0,0,1-3.63-.71,8,8,0,0,1-2.83-1.9A8.23,8.23,0,0,1,781,321.81Zm1.83-3.71a8.92,8.92,0,0,0,.46,3,6.15,6.15,0,0,0,1.31,2.23,5.85,5.85,0,0,0,2,1.41,7.3,7.3,0,0,0,5.31,0,5.62,5.62,0,0,0,2-1.41,6.41,6.41,0,0,0,1.29-2.21,9.35,9.35,0,0,0,.46-3h0a9.27,9.27,0,0,0-.45-3,6.67,6.67,0,0,0-1.27-2.25,5.48,5.48,0,0,0-2-1.4,7,7,0,0,0-2.68-.48,6.85,6.85,0,0,0-2.63.48,5.44,5.44,0,0,0-2,1.4,6.1,6.1,0,0,0-1.31,2.25A9,9,0,0,0,782.87,318.1Z"/><path class="cls-8" d="M799.74,327.08V326a.41.41,0,0,1,.37-.45l1.48-.32V310.79c-.83-.15-1.33-.25-1.48-.3a.41.41,0,0,1-.37-.45v-1.11h6.71a11.08,11.08,0,0,1,3,.36,5.5,5.5,0,0,1,2.09,1,4.06,4.06,0,0,1,1.21,1.6,5.46,5.46,0,0,1,.39,2.1,5,5,0,0,1-.31,1.75,5.09,5.09,0,0,1-.88,1.55,5.14,5.14,0,0,1-1.39,1.14,7.39,7.39,0,0,1-1.9.73,2.41,2.41,0,0,1,.84.75l3.91,5.38c.86.14,1.34.22,1.42.25h0a.41.41,0,0,1,.37.45v1.11h-2.62a1,1,0,0,1-1-.54l-4.73-6.46a1.67,1.67,0,0,0-.44-.44,1.59,1.59,0,0,0-.77-.14H804v5.7c.8.17,1.27.27,1.39.32a.43.43,0,0,1,.3.16.44.44,0,0,1,.12.29v1.09Zm4.25-9.36h2.31a6.34,6.34,0,0,0,1.9-.25,3.68,3.68,0,0,0,1.35-.75,3.12,3.12,0,0,0,.85-1.12,3.66,3.66,0,0,0,.27-1.46,3,3,0,0,0-1.06-2.44,5.13,5.13,0,0,0-3.16-.81H804Z"/><path class="cls-8" d="M816.39,313v-4h14.92v4h-1.23c-.28,0-.44-.08-.48-.25a10.59,10.59,0,0,1-.25-1.66H825.1v14.23a1.23,1.23,0,0,1,.29,0l1.27.25c.17.06.25.21.25.46v1.06h-6.12V326a.45.45,0,0,1,.43-.5l.57-.13.83-.17V311h-4.29a10.62,10.62,0,0,1-.23,1.68c0,.17-.21.25-.5.25Z"/></svg>