<svg id="Calque_1" data-name="Calque 1" xmlns="http://www.w3.org/2000/svg" viewBox="0 0 557 582"><defs><style>.cls-1{fill:#181818;}.cls-2{fill:#9b0424;}.cls-3{fill:#fdfdfd;}.cls-4{fill:#fff;}</style></defs><title>Logo</title><rect class="cls-1" x="-3.3" width="564" height="582"/><path class="cls-2" d="M292.92,370.36c-24.34-10.22-44.67-26.34-59.11-50.08-.36,10.06,6.76,23.94,22.74,44.77-17.8-7.43-45.61-41.71-55.71-68.62-11-29.27-11.27-59-4.89-89.43l-6.77,17.44a8.18,8.18,0,0,1-2-1.34c-8.53-10.62-19.87-15-33.19-15.09-15.95-.07-31.58-2.28-46.29-8.71-34-14.83-48.66-42.86-52.08-78-1.92-19.69-.49-20.72,19.33-22,23.61-1.51,44.28,6.1,62.53,20.45,8.61,6.77,16.26,14.77,24.34,22.22l19.75,18.2-5.47-15.59c10.41-1.74,21.68-3.9,29.08-13.72s6.56-21,4.2-33.58c7-1.65,13.79-3.32,20.6-4.8,4-.87,5.86,1.54,6.63,5.12,2.5,11.58,5.23,23.11,7.4,34.75,1.64,8.77-1.94,15.69-9.31,20.58-1.68,1.11-3.49,2.08-6.11,3.65,21.75-3.65,33.08,1.69,42.72,21.05,4.49,9,10.53,15.77,18.15,22.43,9.48,8.28,17.11,19,24.2,29.54,2.87,4.27,3.71,11.15,2.84,16.41-1.75,10.5-5.58,20.65-8.05,31.07-1.33,5.59-2.87,11.62-2.06,17.12,1.51,10.25-.7,18.08-9.69,23.61-6,3.7-9.45,8.72-10.26,16.09-.33,3-3.28,6.41-6,8.26-3.4,2.33-4.57,4.64-2.38,7.85C282.89,357,288.08,363.74,292.92,370.36ZM96.18,155.57c2.17-3.81,4.46-7.85,7.37-13a77,77,0,0,0-7.2,3.49,82.83,82.83,0,0,0-6.56,5.1l-1.74-10.7c-5.59,7.76-5.38,16.73.92,25.93,17.32,25.28,43.53,27,67.22,20.93,1.54-.4,3.26-2.45,3.8-4.1,4.63-14.17-4-39.08-16.79-47.9,1.55,2.71,2.84,4.81,4,7,5.57,10.46,9,21.49,8,33.59-.32,4.27-2,6.11-6.34,6-7.08-.2-14.29.65-21.25-.36-7.38-1.07-14.53-3.79-21.8-5.79l.55-2.89h22.39c-8.26-6.43-17.75-6.6-27.53-5.52-.29-.74-.57-1.48-.87-2.22l16.9-10.81Zm112.73,42.71c16.51-7.84,24.24,4.51,34.31,11.62-5.71-6.11-11.6-12.08-18.4-16.72-6.09-4.19-10.28-2.56-15.91,5.1Zm21.71-14.21c-10.75-9.73-17.67-10.21-22.35-1.08,8.17-5.57,15.17-2.08,22.35,1.06Zm-12.21,32c2.15,9.46,10.32,12.21,18.74,5.09-8.53,3.56-14,.75-18.72-5.11Z"/><path class="cls-2" d="M404.5,364.84c-3.53-.38-9.5-.69-15.35-1.74-14.82-2.62-28.52.47-42.11,6.29-6.85,2.93-14.27,5.5-21.61,6.11-17.38,1.36-26.52-7.8-25.29-25.12.64-8.81,2.84-17.58,5.16-26.15s5.76-16.88,8.59-25.34c6.7-20,20.05-28.1,41-26,12.43,1.27,25,1.33,37.55,1.27,9.16-.06,17.79,1.1,25.58,6.17,7.13,4.64,9.21,9.72,7.6,18.11a6.62,6.62,0,0,0-.37,2c1.86,12.35,1.93,24.41-3.73,36.1-.93,1.91,1.06,5.23,1.67,7.89C426.6,359.67,422.16,365.25,404.5,364.84Zm-76.44-69.11c0,6-.68,12.78.26,19.36.53,3.72,3.1,7.69,5.86,10.46,4.29,4.25,11.23,3.81,14.18.05,3.18-4,2-12.16-2.3-15.6-5.87-4.71-11.77-9.34-18-14.27Zm92.23,1.74c-3.12,5.73-5.85,9.88-7.62,14.4-.76,1.95-.08,5,1,6.91.57,1,4.28,1.31,5.34.44a9,9,0,0,0,3.21-6.1c-.05-4.67-1.1-9.35-2-15.69Z"/><path class="cls-2" d="M389.15,262.7c-12.27-18.57-25.18-35-24-57.81.64-12.2-.67-24.53-.87-36.81a10.38,10.38,0,0,1,10.05-10.7,9.64,9.64,0,0,1,1.7.09c6,.74,11.78,3.19,17.59,5.09,1.8.59,3.38,1.87,5.05,2.83l.87-1.86c-5.37-2.55-10.52-5.85-16.16-7.49-10.51-3-17.93-9-23.74-18.31-4.66-7.51-11.33-13.76-17-20.64a31.9,31.9,0,0,1-4.69-6.72c-2.44-5.4-.18-8.91,5.73-9.46.68-.06,1.37,0,2.06,0,17.16-.24,16.85-.14,22.13,16,2.25,6.87,5.78,13.4,9.36,19.71,3.38,5.94,9,8.1,15.3,5,10-4.88,20.54-9.28,29.5-15.77,15.3-11.09,31.51-19.46,50.07-23.16,2-.4,4-.6,5.92-.87,10.4,25.66,4,58-15,77-9,9-20.51,12.68-32.46,15.38-7.6,1.74-15.24,3.2-22.84,4.87-3.49.77-4.65,2.77-5.48,6.56-1.22,5.56-4.62,10.63-6.83,16-1.11,2.68-2.88,5.91-2.25,8.36,2.34,9.07,3,17.53-3.24,25.48C388.9,256.64,389.46,259.11,389.15,262.7Zm39-82.72a41.61,41.61,0,0,0,33.81-48.16l0-.18c-1.3,4.36-2.49,8.39-3.84,13l-4.85-5.84c.34,4.09.61,7.2.88,10.37h-7.35c1.37,3.6,2.57,6.71,3.48,9.08l-12.87,5.34.55.94,8,.4.76,2.22C440.43,171.48,434.17,175.83,428.13,180Zm-11.45-35.92,31.38-23.78C435,124,425.06,132.38,416.68,144.06Zm-34.33,69c4.51-8.05,7.49-17.29,18.3-20.56-9.08-2.38-14.65,4.14-18.3,20.56Z"/><path class="cls-2" d="M204.08,100.44c6.75,15.29,2.45,28.86-12.7,35.28-20.6,8.72-22.75,8.41-34.37-10.46-13.64-22.14-7.63-55.45,13.17-72.36,8-6.54,18-10.67,27.32-15.36,2.07-1,6.76-.52,7.78,1,1.47,2.14,1.39,6,.63,8.8-.66,2.42-3.42,4.19-4.84,6.49-4.87,7.9-11.09,15.38-14,24C181.73,93.46,188,100.85,204.08,100.44Z"/><path class="cls-2" d="M367.18,103.18c10.46-3.05,19-4.87,27-8,20.05-7.84,32.51-21.63,32.7-44.41,0-2,1.75-5.23,3.35-5.73s5,.77,6.33,2.37c9.94,12.2,11.45,26.28,7.18,40.87-8,27.4-28.68,41.52-54.54,49.11-2.77.82-8.76-2.62-10.29-5.55C374.28,122.83,371.1,113.07,367.18,103.18Z"/><path class="cls-2" d="M269,388.34c-31.39,9.13-77.59,1.74-98-37.78-14-27-15.65-56.05-14.41-85.6.22-5.23.74-10.46,1.11-15.52,2.1,15.1,3.73,30.4,6.5,45.5a136.75,136.75,0,0,0,18,47.19c18.08,29.38,44.71,44.27,78.88,46.21C263.68,388.46,266.32,388.34,269,388.34Z"/><path class="cls-2" d="M394,369c-14.36,31.39-51.35,36.19-78.57,9.64,13.76,3.44,25-1.36,36.2-6.06C365.36,366.78,379.39,366.54,394,369Z"/><path class="cls-2" d="M293.16,111.36C281.69,91,267.88,85.71,240.71,89.56c2.44-1,4.86-2.08,7.34-3a10.78,10.78,0,0,1,4-.81c18.8,1,37.61,1.81,56.38,3.14,3.6.25,7.06,2.38,10.46,4C291.71,87.36,288.78,92.71,293.16,111.36Z"/><path class="cls-2" d="M343.66,268.65c11.89-4.6,23.54-2.21,34,0Z"/><path class="cls-3" d="M73.31,527.36q3.94.78,4,4.1a4.52,4.52,0,0,1-1.75,3.78A7.38,7.38,0,0,1,71,536.56H62.83v-1.1a.42.42,0,0,1,.38-.45l1.42-.3v-14.2l-1.42-.3a.42.42,0,0,1-.38-.45v-1.1h7.53a8.35,8.35,0,0,1,4.6,1.1,3.78,3.78,0,0,1,1.7,3.4,4.08,4.08,0,0,1-.83,2.65A5,5,0,0,1,73.31,527.36Zm-3-.7a5.19,5.19,0,0,0,2.95-.72,2.62,2.62,0,0,0,1.05-2.28,2.65,2.65,0,0,0-1-2.32,4.86,4.86,0,0,0-2.9-.73h-3.3v6Zm4.6,4.75a2.56,2.56,0,0,0-1-2.27,5,5,0,0,0-2.88-.73H67.06v6.23H71a4.26,4.26,0,0,0,2.92-.8A3.06,3.06,0,0,0,74.86,531.41Zm9.49-7.7a6.66,6.66,0,0,1,2.5.45A5.29,5.29,0,0,1,90,527.51a8.31,8.31,0,0,1,.42,2.7,8.22,8.22,0,0,1-.42,2.7,5.29,5.29,0,0,1-3.13,3.35,7.17,7.17,0,0,1-5,0,5.58,5.58,0,0,1-1.92-1.3,5.83,5.83,0,0,1-1.23-2.05,7.93,7.93,0,0,1-.4-2.7,8,8,0,0,1,.4-2.7,5.92,5.92,0,0,1,1.23-2,5.73,5.73,0,0,1,1.92-1.3A6.7,6.7,0,0,1,84.35,523.71Zm0,11.3a3.15,3.15,0,0,0,2.8-1.25,7.15,7.15,0,0,0,0-7,3.17,3.17,0,0,0-2.8-1.25,4.05,4.05,0,0,0-1.65.3,3.2,3.2,0,0,0-1.15,1,4.7,4.7,0,0,0-.7,1.5,8.78,8.78,0,0,0-.25,2,8.49,8.49,0,0,0,.25,2,4.51,4.51,0,0,0,.7,1.5,2.79,2.79,0,0,0,1.15.9A4,4,0,0,0,84.35,535ZM98,535a4.54,4.54,0,0,0,3.43-1.75v-7.5c-.15,0-.63-.15-1.43-.3a.42.42,0,0,1-.37-.47v-1.08h4v10.85c.8.15,1.28.25,1.43.3a.41.41,0,0,1,.37.45v1.08h-3.12a.59.59,0,0,1-.6-.48l-.18-1.35a5.47,5.47,0,0,1-4.2,2,3.89,3.89,0,0,1-3.15-1.33,5.27,5.27,0,0,1-1.1-3.47v-6.25c-.77-.15-1.23-.25-1.4-.3a.44.44,0,0,1-.4-.48v-1.05h4V532a3.37,3.37,0,0,0,.65,2.25,2.51,2.51,0,0,0,2,.78Zm18.91-.22a5.67,5.67,0,0,1-4.7,2,5.09,5.09,0,0,1-4-1.73,7.93,7.93,0,0,1-.1-9.47,5.6,5.6,0,0,1,4.45-1.83,11,11,0,0,1,3.75.9v3.3h-1a.39.39,0,0,1-.42-.35,9.35,9.35,0,0,1-.1-.95l-.08-.82a2.64,2.64,0,0,0-.55-.15l-.35-.08a10.48,10.48,0,0,0-1.4-.1,3.3,3.3,0,0,0-1.37.33,3.24,3.24,0,0,0-1.18.92,6.86,6.86,0,0,0,0,7,3.19,3.19,0,0,0,2.68,1.25,4.08,4.08,0,0,0,2.77-1,.7.7,0,0,1,.5-.2.43.43,0,0,1,.4.2Zm5.43-9.18a5.55,5.55,0,0,1,4.05-1.9,4,4,0,0,1,3.15,1.3,5.28,5.28,0,0,1,1.1,3.5v6.23c.8.15,1.27.25,1.42.3a.43.43,0,0,1,.38.47v1h-4v-8c0-2-.89-3-2.67-3a4.54,4.54,0,0,0-3.4,1.77v7.5l.3,0,1.1.23a.44.44,0,0,1,.4.47v1H118.3v-1a.44.44,0,0,1,.4-.47l1.4-.28V520q-1.42-.22-1.65-.3a.44.44,0,0,1-.4-.48v-1.05h4.3Zm17.15-1.9a5.72,5.72,0,0,1,2.07.38,4.26,4.26,0,0,1,1.65,1.07,5.13,5.13,0,0,1,1.1,1.78,7,7,0,0,1,.4,2.4,1.38,1.38,0,0,1-.1.7.5.5,0,0,1-.45.17h-8.4a6.65,6.65,0,0,0,.3,2.1,4.07,4.07,0,0,0,.85,1.45,3.24,3.24,0,0,0,1.25.9,4.29,4.29,0,0,0,1.6.3,4.79,4.79,0,0,0,1.45-.17,9.28,9.28,0,0,0,1.05-.43,6.83,6.83,0,0,0,.75-.4,1.17,1.17,0,0,1,.5-.2.49.49,0,0,1,.43.23l.62.82a3.46,3.46,0,0,1-1,.85,5.48,5.48,0,0,1-1.22.63,9,9,0,0,1-1.35.35,8.78,8.78,0,0,1-1.38.12,6.47,6.47,0,0,1-2.42-.45,5.29,5.29,0,0,1-1.93-1.32,5.7,5.7,0,0,1-1.25-2.13,8.66,8.66,0,0,1-.45-2.9,7.13,7.13,0,0,1,.43-2.45,5.9,5.9,0,0,1,1.17-2,5.61,5.61,0,0,1,1.88-1.32A6.05,6.05,0,0,1,139.5,523.71Zm.05,1.63a3.4,3.4,0,0,0-2.53.92,4.63,4.63,0,0,0-1.15,2.6h6.88a4.15,4.15,0,0,0-.23-1.4,3.19,3.19,0,0,0-.6-1.12,3.32,3.32,0,0,0-1-.73,3.54,3.54,0,0,0-1.38-.25Zm10.6,1.15c.94-1.88,2.22-2.83,3.85-2.83a3.31,3.31,0,0,1,1.73.45l-.28,1.68c0,.22-.15.32-.32.32a2.54,2.54,0,0,1-.6-.12,3.8,3.8,0,0,0-1-.13c-1.46,0-2.55.89-3.25,2.65v6.25l1.43.28a.43.43,0,0,1,.37.47v1h-5.82v-1a.43.43,0,0,1,.37-.47l1.43-.28v-9c-.8-.15-1.28-.25-1.43-.3a.43.43,0,0,1-.37-.48v-1.05h3.07a.69.69,0,0,1,.48.13,1,1,0,0,1,.2.47l.15,2Zm8.62-5.45a1.93,1.93,0,0,1-.35-.5,1.4,1.4,0,0,1-.12-.6,1.48,1.48,0,0,1,.12-.63,2.12,2.12,0,0,1,.35-.52,1.93,1.93,0,0,1,.5-.35,1.45,1.45,0,0,1,1.2,0,1.93,1.93,0,0,1,.5.35,2.12,2.12,0,0,1,.35.52,1.39,1.39,0,0,1,.15.63,1.33,1.33,0,0,1-.15.6,1.76,1.76,0,0,1-.85.85,1.56,1.56,0,0,1-1.2,0A1.93,1.93,0,0,1,158.77,521Zm3.63,14a.41.41,0,0,1,.27.18.44.44,0,0,1,.1.3v1.07H157v-1.07a.44.44,0,0,1,.1-.3.37.37,0,0,1,.27-.18l1.45-.27v-9l-1.45-.27a.4.4,0,0,1-.27-.15.56.56,0,0,1-.1-.33v-1.05h4v10.83Zm7.42-11.3a5.73,5.73,0,0,1,2.08.38,4.41,4.41,0,0,1,1.65,1.07,5.28,5.28,0,0,1,1.1,1.78,7.28,7.28,0,0,1,.4,2.4,1.51,1.51,0,0,1-.1.7.52.52,0,0,1-.45.17h-8.4a6.65,6.65,0,0,0,.3,2.1,3.93,3.93,0,0,0,.85,1.45,3.1,3.1,0,0,0,1.25.9,4.26,4.26,0,0,0,1.6.3,4.84,4.84,0,0,0,1.45-.17,9.28,9.28,0,0,0,1-.43c.36-.18.61-.31.75-.4a1.09,1.09,0,0,1,.5-.2.48.48,0,0,1,.42.23l.63.82a3.75,3.75,0,0,1-1,.85,5.51,5.51,0,0,1-1.23.63,9,9,0,0,1-1.35.35,8.76,8.76,0,0,1-1.37.12,6.48,6.48,0,0,1-2.43-.45A5.25,5.25,0,0,1,165.6,535a5.57,5.57,0,0,1-1.25-2.13,8.66,8.66,0,0,1-.45-2.9,7.13,7.13,0,0,1,.42-2.45,6.09,6.09,0,0,1,1.18-2,5.47,5.47,0,0,1,1.87-1.32A6.09,6.09,0,0,1,169.82,523.71Zm.05,1.63a3.38,3.38,0,0,0-2.52.92,4.56,4.56,0,0,0-1.15,2.6h6.87a4.15,4.15,0,0,0-.22-1.4,3.55,3.55,0,0,0-.6-1.12,3.49,3.49,0,0,0-1-.73,3.53,3.53,0,0,0-1.37-.25Zm18.95-6.83a5.23,5.23,0,0,1,1.8.3,4.55,4.55,0,0,1,1.43.85,4,4,0,0,1,.92,1.2,3.83,3.83,0,0,1,.4,1.45l-1.37.28-.13,0a.78.78,0,0,1-.3-.1c-.08,0-.15-.13-.2-.3a3.77,3.77,0,0,0-.27-.7,2.48,2.48,0,0,0-.48-.62,2.43,2.43,0,0,0-.75-.48,2.59,2.59,0,0,0-1-.2,3,3,0,0,0-1.15.2,2.85,2.85,0,0,0-.85.58,2.42,2.42,0,0,0-.55.82,3,3,0,0,0-.2,1.05,2.74,2.74,0,0,0,.13.85,3.43,3.43,0,0,0,.32.8,6.85,6.85,0,0,0,.55.83,8.39,8.39,0,0,0,.8.9l5.15,5.22a9.4,9.4,0,0,0,.75-1.75,7.8,7.8,0,0,0,.4-1.85.51.51,0,0,1,.5-.5h1.35a9.2,9.2,0,0,1-.45,2.83,9.65,9.65,0,0,1-1.25,2.6l3.75,3.8H196a1.93,1.93,0,0,1-.6-.08,1.66,1.66,0,0,1-.5-.4l-1.8-1.8a9.24,9.24,0,0,1-2.7,1.8,8.17,8.17,0,0,1-3.37.65,5.86,5.86,0,0,1-1.95-.32,5.55,5.55,0,0,1-1.73-1,4.52,4.52,0,0,1-1.2-1.55,4.64,4.64,0,0,1-.45-2.1,4.56,4.56,0,0,1,.3-1.65,5.64,5.64,0,0,1,2.05-2.65,11,11,0,0,1,1.55-.9,8.33,8.33,0,0,1-1.1-1.87,4.85,4.85,0,0,1-.37-1.88,4.78,4.78,0,0,1,.32-1.75,4.41,4.41,0,0,1,1-1.4,4.12,4.12,0,0,1,1.52-.92,5.67,5.67,0,0,1,2-.33Zm-4.92,13.13a3.13,3.13,0,0,0,.3,1.42,3.33,3.33,0,0,0,.77,1.05,3.78,3.78,0,0,0,1.13.65,3.58,3.58,0,0,0,1.27.23,5.83,5.83,0,0,0,2.5-.53,6.79,6.79,0,0,0,1.95-1.35l-5.27-5.32a5.28,5.28,0,0,0-2,1.7,3.72,3.72,0,0,0-.68,2.17Zm35.25-7.73H218a.49.49,0,0,1-.55-.45l-.2-2.25a12.48,12.48,0,0,0-3.78-.67,6.17,6.17,0,0,0-4.65,1.9,7.35,7.35,0,0,0-1.82,5.17,8.58,8.58,0,0,0,.75,3.68,6,6,0,0,0,2.17,2.5,6.21,6.21,0,0,0,3.3.87,8,8,0,0,0,2.53-.35,5.67,5.67,0,0,0,2.05-1.25.7.7,0,0,1,.45-.2.49.49,0,0,1,.35.15l.95,1a8.06,8.06,0,0,1-6.45,2.7,8.68,8.68,0,0,1-4.55-1.17,8.08,8.08,0,0,1-3-3.28,10.5,10.5,0,0,1-1-4.7,8.68,8.68,0,0,1,9.27-9.15,16.64,16.64,0,0,1,5.38,1.25Zm5.57,1.7a5.52,5.52,0,0,1,4.05-1.9,4,4,0,0,1,3.15,1.3,5.28,5.28,0,0,1,1.1,3.5v6.23c.8.15,1.27.25,1.42.3a.43.43,0,0,1,.38.47v1h-4v-8c0-2-.89-3-2.67-3a4.54,4.54,0,0,0-3.4,1.77v7.5l.3,0,1.1.23a.44.44,0,0,1,.4.47v1h-5.85v-1a.44.44,0,0,1,.4-.47l1.4-.28V520q-1.42-.22-1.65-.3a.44.44,0,0,1-.4-.48v-1.05h4.3ZM247.24,535a.41.41,0,0,1,.28.18.49.49,0,0,1,.1.3v1.07H245a1.63,1.63,0,0,1-.53-.1c-.11,0-.2-.16-.25-.4l-.25-1.2-1,.83a4.21,4.21,0,0,1-1,.6,5.09,5.09,0,0,1-1.1.37,5.38,5.38,0,0,1-1.35.13,4.16,4.16,0,0,1-1.35-.23,3.19,3.19,0,0,1-1.12-.6,3,3,0,0,1-.75-1,3.37,3.37,0,0,1-.28-1.5,2.8,2.8,0,0,1,.4-1.45,3.82,3.82,0,0,1,1.35-1.25,9.1,9.1,0,0,1,2.4-.9,17.64,17.64,0,0,1,3.65-.32v-1a3.39,3.39,0,0,0-.65-2.25,2.32,2.32,0,0,0-1.87-.77,3.81,3.81,0,0,0-1.38.22,5.77,5.77,0,0,0-.95.45c-.1.07-.21.15-.35.23l-.37.22a1,1,0,0,1-.58.2.64.64,0,0,1-.4-.1,1.05,1.05,0,0,1-.25-.3l-.4-.7a7.51,7.51,0,0,1,2.25-1.5,6.81,6.81,0,0,1,2.7-.5,4.64,4.64,0,0,1,1.9.35,3.79,3.79,0,0,1,2.23,2.45,6.29,6.29,0,0,1,.27,1.95v6.33l1.25.27Zm-3.45-4.1a15,15,0,0,0-2.6.18,8.5,8.5,0,0,0-1.75.52,2.56,2.56,0,0,0-1,.75,1.69,1.69,0,0,0-.3,1,2.28,2.28,0,0,0,.18.85,1.37,1.37,0,0,0,.45.6,2,2,0,0,0,.65.33,3,3,0,0,0,.82.12,4.83,4.83,0,0,0,1-.12,4.44,4.44,0,0,0,.93-.33,3.66,3.66,0,0,0,.82-.55,7.63,7.63,0,0,0,.75-.7Zm9.25-4.37c.93-1.88,2.21-2.83,3.85-2.83a3.27,3.27,0,0,1,1.72.45l-.27,1.68c0,.22-.16.32-.33.32a2.54,2.54,0,0,1-.6-.12,3.72,3.72,0,0,0-1-.13c-1.47,0-2.55.89-3.25,2.65v6.25l1.42.28a.43.43,0,0,1,.38.47v1h-5.83v-1a.43.43,0,0,1,.38-.47l1.42-.28v-9c-.8-.15-1.27-.25-1.42-.3a.44.44,0,0,1-.38-.48v-1.05h3.08a.68.68,0,0,1,.47.13,1,1,0,0,1,.2.47l.15,2Zm16.47,8.3a5.69,5.69,0,0,1-4.7,2,5.07,5.07,0,0,1-3.95-1.73,7.89,7.89,0,0,1-.1-9.47,5.6,5.6,0,0,1,4.45-1.83,11,11,0,0,1,3.75.9v3.3h-1a.4.4,0,0,1-.43-.35s0-.36-.1-.95l-.07-.82a2.81,2.81,0,0,0-.55-.15l-.35-.08a10.6,10.6,0,0,0-1.4-.1,3.38,3.38,0,0,0-1.38.33,3.13,3.13,0,0,0-1.17.92,5.71,5.71,0,0,0-.95,3.5,5.65,5.65,0,0,0,1,3.55,3.18,3.18,0,0,0,2.67,1.25,4.1,4.1,0,0,0,2.78-1,.69.69,0,0,1,.5-.2.44.44,0,0,1,.4.2Zm7.58.22a4.51,4.51,0,0,0,3.42-1.75v-7.5c-.15,0-.62-.15-1.42-.3a.43.43,0,0,1-.38-.47v-1.08h4v10.85c.8.15,1.27.25,1.42.3a.42.42,0,0,1,.38.45v1.08h-3.13a.59.59,0,0,1-.6-.48l-.17-1.35a5.47,5.47,0,0,1-4.2,2,3.89,3.89,0,0,1-3.15-1.33,5.21,5.21,0,0,1-1.1-3.47v-6.25c-.77-.15-1.24-.25-1.4-.3a.44.44,0,0,1-.4-.48v-1.05h4.05V532a3.32,3.32,0,0,0,.65,2.25,2.49,2.49,0,0,0,2,.78Zm13.05,1.75a3.08,3.08,0,0,1-2.3-.85,3.22,3.22,0,0,1-.8-2.4v-7.75h-1.53a.52.52,0,0,1-.35-.1.46.46,0,0,1-.12-.37v-.88l2.07-.27.5-3.93a.34.34,0,0,1,.15-.3.58.58,0,0,1,.35-.1h1.13v4.35h3.62v1.63h-3.62v7.6a1.64,1.64,0,0,0,.37,1.2,1.38,1.38,0,0,0,1,.37,2.15,2.15,0,0,0,.62-.1,2.22,2.22,0,0,0,.45-.2l.15-.1.15-.1a1.17,1.17,0,0,1,.25-.1.35.35,0,0,1,.3.2l.65,1.05a4.61,4.61,0,0,1-1.4.85A4.87,4.87,0,0,1,290.14,536.76Zm10.08-13a5.72,5.72,0,0,1,2.07.38,4.26,4.26,0,0,1,1.65,1.07,5.13,5.13,0,0,1,1.1,1.78,7,7,0,0,1,.4,2.4,1.38,1.38,0,0,1-.1.7.5.5,0,0,1-.45.17h-8.4a6.65,6.65,0,0,0,.3,2.1,4.07,4.07,0,0,0,.85,1.45,3.24,3.24,0,0,0,1.25.9,4.29,4.29,0,0,0,1.6.3,4.79,4.79,0,0,0,1.45-.17,9.28,9.28,0,0,0,1.05-.43,6.83,6.83,0,0,0,.75-.4,1.17,1.17,0,0,1,.5-.2.49.49,0,0,1,.43.23l.62.82a3.46,3.46,0,0,1-1,.85,5.7,5.7,0,0,1-1.22.63,9,9,0,0,1-1.35.35,8.78,8.78,0,0,1-1.38.12,6.47,6.47,0,0,1-2.42-.45A5.29,5.29,0,0,1,296,535a5.7,5.7,0,0,1-1.25-2.13,8.66,8.66,0,0,1-.45-2.9,6.9,6.9,0,0,1,.43-2.45,5.9,5.9,0,0,1,1.17-2,5.51,5.51,0,0,1,1.88-1.32A6.05,6.05,0,0,1,300.22,523.71Zm0,1.63a3.39,3.39,0,0,0-2.53.92,4.63,4.63,0,0,0-1.15,2.6h6.88a4.15,4.15,0,0,0-.23-1.4,3.19,3.19,0,0,0-.6-1.12,3.32,3.32,0,0,0-1-.73,3.58,3.58,0,0,0-1.38-.25Zm10.6,1.15c.94-1.88,2.22-2.83,3.85-2.83a3.31,3.31,0,0,1,1.73.45l-.28,1.68c-.05.22-.16.32-.32.32a2.54,2.54,0,0,1-.6-.12,3.85,3.85,0,0,0-1-.13c-1.46,0-2.55.89-3.25,2.65v6.25l1.43.28a.43.43,0,0,1,.37.47v1H307v-1a.43.43,0,0,1,.37-.47l1.43-.28v-9c-.8-.15-1.28-.25-1.43-.3A.43.43,0,0,1,307,525v-1.05H310a.71.71,0,0,1,.48.13,1,1,0,0,1,.2.47l.15,2Zm8.62-5.45a1.71,1.71,0,0,1-.35-.5,1.26,1.26,0,0,1-.13-.6,1.34,1.34,0,0,1,.13-.63,1.87,1.87,0,0,1,.35-.52,1.93,1.93,0,0,1,.5-.35,1.33,1.33,0,0,1,.6-.13,1.4,1.4,0,0,1,.6.13,2.11,2.11,0,0,1,.5.35,2.44,2.44,0,0,1,.35.52,1.39,1.39,0,0,1,.15.63,1.33,1.33,0,0,1-.15.6,1.93,1.93,0,0,1-.35.5,2.11,2.11,0,0,1-.5.35,1.4,1.4,0,0,1-.6.12,1.34,1.34,0,0,1-.6-.12A1.93,1.93,0,0,1,319.49,521Zm3.62,14a.41.41,0,0,1,.28.18.49.49,0,0,1,.1.3v1.07h-5.83v-1.07a.49.49,0,0,1,.1-.3A.41.41,0,0,1,318,535l1.45-.27v-9l-1.45-.27a.45.45,0,0,1-.28-.15.64.64,0,0,1-.1-.33v-1.05h4v10.83Zm7.43-11.3a5.72,5.72,0,0,1,2.07.38,4.26,4.26,0,0,1,1.65,1.07,5.13,5.13,0,0,1,1.1,1.78,7,7,0,0,1,.4,2.4,1.38,1.38,0,0,1-.1.7.5.5,0,0,1-.45.17h-8.4a6.65,6.65,0,0,0,.3,2.1,4.07,4.07,0,0,0,.85,1.45,3.24,3.24,0,0,0,1.25.9,4.29,4.29,0,0,0,1.6.3,4.79,4.79,0,0,0,1.45-.17,9.28,9.28,0,0,0,1.05-.43,6.83,6.83,0,0,0,.75-.4,1.17,1.17,0,0,1,.5-.2.49.49,0,0,1,.43.23l.62.82a3.46,3.46,0,0,1-1,.85,5.48,5.48,0,0,1-1.22.63,9,9,0,0,1-1.35.35,8.78,8.78,0,0,1-1.38.12,6.47,6.47,0,0,1-2.42-.45,5.29,5.29,0,0,1-1.93-1.32,5.7,5.7,0,0,1-1.25-2.13,8.66,8.66,0,0,1-.45-2.9,7.13,7.13,0,0,1,.43-2.45,5.9,5.9,0,0,1,1.17-2,5.61,5.61,0,0,1,1.88-1.32A6.05,6.05,0,0,1,330.54,523.71Zm0,1.63a3.4,3.4,0,0,0-2.53.92,4.63,4.63,0,0,0-1.15,2.6h6.88a4.15,4.15,0,0,0-.23-1.4,3.19,3.19,0,0,0-.6-1.12,3.32,3.32,0,0,0-1-.73,3.54,3.54,0,0,0-1.38-.25Zm16.63,11.42a3.08,3.08,0,0,1-2.3-.85,3.22,3.22,0,0,1-.8-2.4v-7.75h-1.53a.52.52,0,0,1-.35-.1.46.46,0,0,1-.12-.37v-.88l2.07-.27.5-3.93a.34.34,0,0,1,.15-.3.58.58,0,0,1,.35-.1h1.13v4.35h3.62v1.63h-3.62v7.6a1.64,1.64,0,0,0,.37,1.2,1.38,1.38,0,0,0,1,.37,2.15,2.15,0,0,0,.62-.1,2.22,2.22,0,0,0,.45-.2l.15-.1.15-.1a1.17,1.17,0,0,1,.25-.1.35.35,0,0,1,.3.2l.65,1.05a4.61,4.61,0,0,1-1.4.85A4.87,4.87,0,0,1,347.22,536.76Zm8.43-10.27c.93-1.88,2.21-2.83,3.85-2.83a3.27,3.27,0,0,1,1.72.45l-.27,1.68c-.05.22-.16.32-.33.32a2.74,2.74,0,0,1-.6-.12,3.72,3.72,0,0,0-1-.13c-1.47,0-2.55.89-3.25,2.65v6.25l1.42.28a.43.43,0,0,1,.38.47v1h-5.83v-1a.43.43,0,0,1,.38-.47l1.42-.28v-9c-.8-.15-1.27-.25-1.42-.3a.44.44,0,0,1-.38-.48v-1.05h3.08a.68.68,0,0,1,.47.13.9.9,0,0,1,.2.47l.15,2ZM373,535a.37.37,0,0,1,.27.18.44.44,0,0,1,.1.3v1.07h-2.6a1.58,1.58,0,0,1-.52-.1c-.12,0-.2-.16-.25-.4l-.25-1.2-1,.83a4.42,4.42,0,0,1-1,.6,5.28,5.28,0,0,1-1.1.37,5.38,5.38,0,0,1-1.35.13,4.07,4.07,0,0,1-1.35-.23,3.25,3.25,0,0,1-1.13-.6,3,3,0,0,1-.75-1,3.53,3.53,0,0,1-.27-1.5,2.71,2.71,0,0,1,.4-1.45,3.82,3.82,0,0,1,1.35-1.25,9.1,9.1,0,0,1,2.4-.9,17.57,17.57,0,0,1,3.65-.32v-1a3.45,3.45,0,0,0-.65-2.25,2.33,2.33,0,0,0-1.88-.77,3.75,3.75,0,0,0-1.37.22,5.77,5.77,0,0,0-.95.45l-.35.23-.38.22a.9.9,0,0,1-.57.2.62.62,0,0,1-.4-.1,1.05,1.05,0,0,1-.25-.3l-.4-.7a7.51,7.51,0,0,1,2.25-1.5,6.81,6.81,0,0,1,2.7-.5,4.67,4.67,0,0,1,1.9.35,4,4,0,0,1,1.37,1,3.9,3.9,0,0,1,.85,1.5,6,6,0,0,1,.28,1.95v6.33L373,535Zm-3.45-4.1a15,15,0,0,0-2.6.18,8.31,8.31,0,0,0-1.75.52,2.49,2.49,0,0,0-1,.75,1.69,1.69,0,0,0-.3,1,2.47,2.47,0,0,0,.17.85,1.37,1.37,0,0,0,.45.6,2.1,2.1,0,0,0,.65.33,3.08,3.08,0,0,0,.83.12,5,5,0,0,0,1.05-.12,4.35,4.35,0,0,0,.92-.33,3.7,3.7,0,0,0,.83-.55,7.63,7.63,0,0,0,.75-.7Zm10.52-7.2a4.43,4.43,0,0,1,3.45,1.5V520l-1.68-.3a.41.41,0,0,1-.37-.45v-1.1h4.25v16.6c.83.15,1.31.25,1.45.3a.41.41,0,0,1,.35.45v1.1h-3.1a.59.59,0,0,1-.6-.47l-.2-1.53a5.34,5.34,0,0,1-4.25,2.15,4.17,4.17,0,0,1-3.5-1.65,7.8,7.8,0,0,1-1.3-4.8,7.28,7.28,0,0,1,1.47-4.7A4.94,4.94,0,0,1,380.07,523.66Zm.05,11.28a4.15,4.15,0,0,0,3.4-1.93v-6.1a3.5,3.5,0,0,0-2.93-1.5,3.27,3.27,0,0,0-2.77,1.25,5.85,5.85,0,0,0-.95,3.6c0,2.39.61,3.85,1.85,4.4a3.35,3.35,0,0,0,1.37.25ZM390.73,521a1.71,1.71,0,0,1-.35-.5,1.26,1.26,0,0,1-.13-.6,1.34,1.34,0,0,1,.13-.63,1.87,1.87,0,0,1,.35-.52,1.93,1.93,0,0,1,.5-.35,1.33,1.33,0,0,1,.6-.13,1.4,1.4,0,0,1,.6.13,2.11,2.11,0,0,1,.5.35,2.44,2.44,0,0,1,.35.52,1.39,1.39,0,0,1,.15.63,1.33,1.33,0,0,1-.15.6,1.93,1.93,0,0,1-.35.5,2.11,2.11,0,0,1-.5.35,1.4,1.4,0,0,1-.6.12,1.34,1.34,0,0,1-.6-.12A1.93,1.93,0,0,1,390.73,521Zm3.62,14a.41.41,0,0,1,.28.18.49.49,0,0,1,.1.3v1.07H388.9v-1.07a.49.49,0,0,1,.1-.3.41.41,0,0,1,.28-.18l1.45-.27v-9l-1.45-.27a.45.45,0,0,1-.28-.15.64.64,0,0,1-.1-.33v-1.05h4v10.83Zm6.43,1.75a3.09,3.09,0,0,1-2.3-.85,3.26,3.26,0,0,1-.8-2.4v-7.75h-1.53a.54.54,0,0,1-.35-.1.46.46,0,0,1-.12-.37v-.88l2.07-.27.5-3.93a.34.34,0,0,1,.15-.3.61.61,0,0,1,.35-.1h1.13v4.35h3.62v1.63h-3.62v7.6a1.64,1.64,0,0,0,.37,1.2,1.4,1.4,0,0,0,1,.37,2.15,2.15,0,0,0,.62-.1,2.22,2.22,0,0,0,.45-.2l.15-.1.15-.1a1.43,1.43,0,0,1,.25-.1.35.35,0,0,1,.3.2l.65,1.05a4.5,4.5,0,0,1-1.4.85A4.83,4.83,0,0,1,400.78,536.76ZM407,521a1.71,1.71,0,0,1-.35-.5,1.26,1.26,0,0,1-.13-.6,1.34,1.34,0,0,1,.13-.63,1.87,1.87,0,0,1,.35-.52,1.93,1.93,0,0,1,.5-.35,1.33,1.33,0,0,1,.6-.13,1.4,1.4,0,0,1,.6.13,2.11,2.11,0,0,1,.5.35,2.44,2.44,0,0,1,.35.52,1.39,1.39,0,0,1,.15.63,1.33,1.33,0,0,1-.15.6,1.93,1.93,0,0,1-.35.5,2.11,2.11,0,0,1-.5.35,1.4,1.4,0,0,1-.6.12,1.34,1.34,0,0,1-.6-.12A1.93,1.93,0,0,1,407,521Zm3.62,14a.41.41,0,0,1,.28.18.49.49,0,0,1,.1.3v1.07h-5.83v-1.07a.49.49,0,0,1,.1-.3.41.41,0,0,1,.28-.18l1.45-.27v-9l-1.45-.27a.45.45,0,0,1-.28-.15.64.64,0,0,1-.1-.33v-1.05h4v10.83Zm7.6-11.3a6.66,6.66,0,0,1,2.5.45,5.67,5.67,0,0,1,1.93,1.3,5.38,5.38,0,0,1,1.2,2,8.31,8.31,0,0,1,.42,2.7,8.22,8.22,0,0,1-.42,2.7,5.23,5.23,0,0,1-1.2,2.05,5.53,5.53,0,0,1-1.93,1.3,7.17,7.17,0,0,1-5,0,5.58,5.58,0,0,1-1.92-1.3,5.83,5.83,0,0,1-1.23-2.05,7.93,7.93,0,0,1-.4-2.7,8,8,0,0,1,.4-2.7,5.92,5.92,0,0,1,1.23-2,5.73,5.73,0,0,1,1.92-1.3A6.7,6.7,0,0,1,418.26,523.71Zm0,11.3a3.15,3.15,0,0,0,2.8-1.25,7.15,7.15,0,0,0,0-7,3.17,3.17,0,0,0-2.8-1.25,4.05,4.05,0,0,0-1.65.3,3.2,3.2,0,0,0-1.15,1,4.7,4.7,0,0,0-.7,1.5,8.78,8.78,0,0,0-.25,2,8.49,8.49,0,0,0,.25,2,4.51,4.51,0,0,0,.7,1.5,2.79,2.79,0,0,0,1.15.9A4,4,0,0,0,418.26,535Zm11.36-9.3a5.62,5.62,0,0,1,4.2-2A3.86,3.86,0,0,1,437,525a5.29,5.29,0,0,1,1.08,3.48v6.22c.8.15,1.27.25,1.42.3a.44.44,0,0,1,.4.48v1.07h-4.05v-8c0-2-.88-3-2.65-3a4.6,4.6,0,0,0-3.45,1.78v7.5c.07,0,.55.1,1.45.3a.43.43,0,0,1,.38.47v1h-5.83v-1a.43.43,0,0,1,.35-.47l1.45-.28v-9a14.53,14.53,0,0,1-1.45-.3.43.43,0,0,1-.35-.48v-1.05h3.1a.59.59,0,0,1,.6.45l.2,1.38Zm15.63,0a5.62,5.62,0,0,1,4.2-2A3.89,3.89,0,0,1,452.6,525a5.34,5.34,0,0,1,1.07,3.48v6.22c.8.15,1.28.25,1.43.3a.45.45,0,0,1,.4.48v1.07h-4.05v-8c0-2-.89-3-2.65-3a4.6,4.6,0,0,0-3.45,1.78v7.5c.06,0,.55.1,1.45.3a.43.43,0,0,1,.37.47v1h-5.82v-1a.42.42,0,0,1,.35-.47l1.45-.28v-9a13.83,13.83,0,0,1-1.45-.3.42.42,0,0,1-.35-.48v-1.05h3.1a.59.59,0,0,1,.6.45l.2,1.38Zm17.3-2a5.72,5.72,0,0,1,2.07.38,4.26,4.26,0,0,1,1.65,1.07,5.13,5.13,0,0,1,1.1,1.78,7,7,0,0,1,.4,2.4,1.38,1.38,0,0,1-.1.7.5.5,0,0,1-.45.17h-8.4a6.65,6.65,0,0,0,.3,2.1,4.07,4.07,0,0,0,.85,1.45,3.17,3.17,0,0,0,1.25.9,4.26,4.26,0,0,0,1.6.3,4.84,4.84,0,0,0,1.45-.17,9.28,9.28,0,0,0,1.05-.43,6.83,6.83,0,0,0,.75-.4,1.13,1.13,0,0,1,.5-.2.5.5,0,0,1,.43.23l.62.82a3.6,3.6,0,0,1-1,.85,5.7,5.7,0,0,1-1.22.63,9,9,0,0,1-1.35.35,8.78,8.78,0,0,1-1.38.12,6.43,6.43,0,0,1-2.42-.45,5.29,5.29,0,0,1-1.93-1.32,5.7,5.7,0,0,1-1.25-2.13,8.66,8.66,0,0,1-.45-2.9,6.9,6.9,0,0,1,.43-2.45,5.9,5.9,0,0,1,1.17-2,5.51,5.51,0,0,1,1.88-1.32A6.05,6.05,0,0,1,462.55,523.71Zm.05,1.63a3.39,3.39,0,0,0-2.53.92,4.56,4.56,0,0,0-1.15,2.6h6.88a4.15,4.15,0,0,0-.23-1.4,3.19,3.19,0,0,0-.6-1.12,3.32,3.32,0,0,0-1-.73,3.62,3.62,0,0,0-1.38-.25ZM474.68,535a.45.45,0,0,1,.4.48v1.07h-5.85v-1.07a.44.44,0,0,1,.4-.48l1.4-.27V520c-.77-.15-1.24-.25-1.4-.3a.42.42,0,0,1-.4-.45v-1.07h4v16.57C474,534.86,474.51,535,474.68,535Zm7.25,0a.45.45,0,0,1,.4.48v1.07h-5.85v-1.07a.44.44,0,0,1,.4-.48l1.4-.27V520c-.77-.15-1.24-.25-1.4-.3a.42.42,0,0,1-.4-.45v-1.07h4v16.57C481.29,534.86,481.76,535,481.93,535Zm7.42-11.3a5.73,5.73,0,0,1,2.08.38,4.41,4.41,0,0,1,1.65,1.07,5.28,5.28,0,0,1,1.1,1.78,7.28,7.28,0,0,1,.4,2.4,1.51,1.51,0,0,1-.1.7.52.52,0,0,1-.45.17h-8.4a6.65,6.65,0,0,0,.3,2.1,3.93,3.93,0,0,0,.85,1.45,3.1,3.1,0,0,0,1.25.9,4.26,4.26,0,0,0,1.6.3,4.84,4.84,0,0,0,1.45-.17,9.28,9.28,0,0,0,1.05-.43c.36-.18.61-.31.75-.4a1.09,1.09,0,0,1,.5-.2.48.48,0,0,1,.42.23l.63.82a3.75,3.75,0,0,1-1,.85,5.51,5.51,0,0,1-1.23.63,9,9,0,0,1-1.35.35,8.76,8.76,0,0,1-1.37.12,6.48,6.48,0,0,1-2.43-.45,5.25,5.25,0,0,1-1.92-1.32,5.57,5.57,0,0,1-1.25-2.13,8.66,8.66,0,0,1-.45-2.9,7.13,7.13,0,0,1,.42-2.45,6.09,6.09,0,0,1,1.18-2,5.47,5.47,0,0,1,1.87-1.32A6.09,6.09,0,0,1,489.35,523.71Zm0,1.63a3.38,3.38,0,0,0-2.52.92,4.56,4.56,0,0,0-1.15,2.6h6.87a4.15,4.15,0,0,0-.22-1.4,3.55,3.55,0,0,0-.6-1.12,3.49,3.49,0,0,0-1-.73,3.53,3.53,0,0,0-1.37-.25Z"/><path class="cls-4" d="M67.67,482.64H38.12v-3.32a1.64,1.64,0,0,1,1.41-1.75l.33-.06.85-.17,1.69-.28V447.44l-1.69-.28a5,5,0,0,1-.51-.11,1,1,0,0,0-.34-.06l-.33-.05a1.65,1.65,0,0,1-1.41-1.75v-3.33H54.25v3.33a1.65,1.65,0,0,1-1.41,1.75l-.34.05-.85.17-1.69.28v28.94H63.11c.11-1.5.18-2.31.22-2.42a1.25,1.25,0,0,1,1.3-1.07h3Zm44.87-4.34a1.46,1.46,0,0,1,1.08,1.47v2.87H99.85v-2.87A1.61,1.61,0,0,1,101,478.3l1.13-.45-2.26-6.15H83.61l-2.26,6.15,1.13.45a1.61,1.61,0,0,1,1.13,1.47v2.87H69.84v-2.87A1.61,1.61,0,0,1,71,478.3l3.1-1.3,13.77-35.14h7.78L109.44,477Zm-14.61-12-4.68-12.69q-.68-1.86-1.52-4.79l-.51,1.74c-.3,1-.64,2-1,3.11l-4.63,12.63Zm57-4.79q8.41,1.86,8.41,9.08a11.22,11.22,0,0,1-1,4.79,10.6,10.6,0,0,1-2.87,3.84,13.41,13.41,0,0,1-4.63,2.48,20.07,20.07,0,0,1-6.32.9H128.85v-3.32a1.64,1.64,0,0,1,1.41-1.75l.33-.06a1,1,0,0,0,.34-.06l.51-.11,1.69-.28V447.44l-1.69-.28a5,5,0,0,1-.51-.11,1,1,0,0,0-.34-.06l-.33-.05a1.65,1.65,0,0,1-1.41-1.75v-3.33h18.33a26.94,26.94,0,0,1,6.82.73,12.71,12.71,0,0,1,4.69,2.2,8.53,8.53,0,0,1,2.65,3.44,11.58,11.58,0,0,1,.84,4.46,9.22,9.22,0,0,1-.39,2.77,8.16,8.16,0,0,1-1.36,2.48,12.37,12.37,0,0,1-2.25,2A15.33,15.33,0,0,1,155,461.55Zm-8.18-2a10.09,10.09,0,0,0,5.87-1.41,5.16,5.16,0,0,0,2-4.52c0-2.1-.6-3.61-1.8-4.51s-3-1.35-5.64-1.35h-6.49v11.79Zm8.69,13.37a6.79,6.79,0,0,0,.4-2.43,6.44,6.44,0,0,0-.46-2.37,4.3,4.3,0,0,0-1.29-1.8,6.87,6.87,0,0,0-2.32-1.13,12.25,12.25,0,0,0-3.44-.4h-7.67v12h7.73a10.54,10.54,0,0,0,3.55-.51,5.94,5.94,0,0,0,2.26-1.35A4.92,4.92,0,0,0,155.47,472.89Zm39.74-20.31h-3.27a1.26,1.26,0,0,1-1.3-1.07c-.18-1.47-.32-2.67-.39-3.61H177.11v11.28h13.82V465H177.11v11.51h13.14c.07-.94.21-2.14.39-3.61a1.26,1.26,0,0,1,1.3-1.07h3.27v10.77h-30v-3.32a1.64,1.64,0,0,1,1.41-1.75l.34-.06a1,1,0,0,0,.34-.06l.51-.11,1.69-.28V447.44l-1.69-.28a5,5,0,0,1-.51-.11A1,1,0,0,0,167,447l-.34-.05a1.65,1.65,0,0,1-1.41-1.75v-3.33h30Zm31.94,30.06H197.59v-3.32a1.64,1.64,0,0,1,1.41-1.75l.34-.06.85-.17,1.69-.28V447.44l-1.69-.28a5,5,0,0,1-.51-.11,1,1,0,0,0-.34-.06l-.34-.05a1.65,1.65,0,0,1-1.41-1.75v-3.33h16.14v3.33a1.65,1.65,0,0,1-1.41,1.75L212,447l-.85.17-1.69.28v28.94h13.14c.12-1.5.19-2.31.23-2.42a1.25,1.25,0,0,1,1.3-1.07h3Zm33.76-30.06h-3.27a1.26,1.26,0,0,1-1.3-1.07c-.19-1.47-.32-2.67-.39-3.61H241.39V460h14.27v6H241.39v11.06l1.69.28.46.11a1.55,1.55,0,0,0,.39.06l.34.06a1.64,1.64,0,0,1,1.41,1.75v3.32H229.49v-3.32a1.64,1.64,0,0,1,1.41-1.75l.34-.06a1.06,1.06,0,0,0,.34-.06l.5-.11,1.7-.28V447.44l-1.7-.28-.5-.11a1.06,1.06,0,0,0-.34-.06l-.34-.05a1.65,1.65,0,0,1-1.41-1.75v-3.33h31.42Zm43,9.64A21.77,21.77,0,0,1,301.29,473a18.82,18.82,0,0,1-7.34,7.44,21.22,21.22,0,0,1-10.66,2.66,21.58,21.58,0,0,1-10.72-2.66,18.94,18.94,0,0,1-7.33-7.39,23.45,23.45,0,0,1,0-21.66,18.59,18.59,0,0,1,7.33-7.33,21.57,21.57,0,0,1,10.72-2.65A21,21,0,0,1,294,444.12a18.8,18.8,0,0,1,7.33,7.44A21.85,21.85,0,0,1,303.94,462.22Zm-7.79,0q0-6.48-3.38-10.38t-9.48-3.94q-6.26,0-9.64,3.94t-3.33,10.38c0,4.37,1.13,7.86,3.38,10.5s5.46,3.89,9.59,3.89,7.32-1.32,9.54-3.95S296.15,466.55,296.15,462.22ZM341,477.57a1.64,1.64,0,0,1,1.41,1.75v3.32h-7.61a3.13,3.13,0,0,1-1.69-.39,3.92,3.92,0,0,1-1.13-1.13L323.38,468a2.93,2.93,0,0,0-1.07-1,3.49,3.49,0,0,0-1.69-.34h-2.88v10.38l1.69.28.46.11a1.55,1.55,0,0,0,.39.06l.34.06a1.64,1.64,0,0,1,1.41,1.75v3.32H305.9v-3.32a1.64,1.64,0,0,1,1.41-1.75l.34-.06.84-.17,1.69-.28V447.44l-1.69-.28a5,5,0,0,1-.51-.11,1,1,0,0,0-.33-.06l-.34-.05a1.65,1.65,0,0,1-1.41-1.75v-3.33h16.3a26.27,26.27,0,0,1,7.16.85,13.88,13.88,0,0,1,4.85,2.42,9.33,9.33,0,0,1,2.82,3.73,11.87,11.87,0,0,1,.91,4.73,13.11,13.11,0,0,1-.62,3.9,11.24,11.24,0,0,1-1.75,3.32,10.65,10.65,0,0,1-2.82,2.6,16.49,16.49,0,0,1-3.84,1.8,7.47,7.47,0,0,1,2.48,2.37l6.43,9.48,1.75.28.51.11a2.32,2.32,0,0,0,.45.06ZM325.81,460.7a7.23,7.23,0,0,0,2.65-1.47A6.34,6.34,0,0,0,330,457a7.68,7.68,0,0,0,.51-2.82,5.91,5.91,0,0,0-2-4.8c-1.32-1.09-3.4-1.63-6.26-1.63h-4.46v13.54h4.35A12.25,12.25,0,0,0,325.81,460.7Zm52.38-9.19H375a1.29,1.29,0,0,1-1.35-1.08c-.11-.63-.21-1.41-.28-2.31h-8.29v28.94l1.63.28.45.11a1.62,1.62,0,0,0,.4.06l.34.06a1.66,1.66,0,0,1,1.46,1.75v3.32H353.2v-3.32a1.64,1.64,0,0,1,1.41-1.75l.34-.06a1.06,1.06,0,0,0,.34-.06l.51-.11,1.63-.28v-29h-8.29c-.08,1-.17,1.76-.28,2.36a1.26,1.26,0,0,1-1.3,1.08h-3.27v-9.65h33.9Zm44.55,26.79a1.45,1.45,0,0,1,1.07,1.47v2.87H410.05v-2.87a1.61,1.61,0,0,1,1.13-1.47l1.13-.45-2.26-6.15H393.8l-2.25,6.15,1.13.45a1.6,1.6,0,0,1,1.12,1.47v2.87H380v-2.87a1.61,1.61,0,0,1,1.13-1.47l3.1-1.3L398,441.86h7.78L419.64,477Zm-14.61-12-4.68-12.69q-.68-1.86-1.52-4.79l-.51,1.74c-.3,1-.64,2-1,3.11l-4.62,12.63ZM440.37,447a1.55,1.55,0,0,0-.39.06,3,3,0,0,1-.45.11l-1.64.28v29.62l1.64.28.45.11a1.55,1.55,0,0,0,.39.06l.34.06a1.64,1.64,0,0,1,1.41,1.75v3.32H426v-3.32a1.64,1.64,0,0,1,1.41-1.75l.34-.06.84-.17,1.7-.28V447.44l-1.7-.28a4.75,4.75,0,0,1-.5-.11,1.06,1.06,0,0,0-.34-.06l-.34-.05a1.65,1.65,0,0,1-1.41-1.75v-3.33h16.13v3.33a1.65,1.65,0,0,1-1.41,1.75Zm46.94-1.8a1.65,1.65,0,0,1-1.41,1.75l-.33.05a1.55,1.55,0,0,0-.4.06,2.46,2.46,0,0,1-.45.11l-1.64.28v35.2h-3.94a3.74,3.74,0,0,1-1.47-.28,3.17,3.17,0,0,1-1.19-1l-21.32-27.14c.08.83.11,1.41.11,1.75l.06,1.64v19.46l3.67.51a1.64,1.64,0,0,1,1.41,1.75v3.32h-16v-3.32a1.64,1.64,0,0,1,1.41-1.75l.34-.06.84-.17,1.69-.28V447.44l-1.69-.28a5,5,0,0,1-.51-.11,1,1,0,0,0-.33-.06l-.34-.05a1.65,1.65,0,0,1-1.41-1.75v-3.33h8.23l.85.06a1,1,0,0,1,.62.17,1.18,1.18,0,0,1,.51.33l.56.68,21.44,27.25-.17-1.92c0-.41-.06-1-.06-1.81V447.44l-3.67-.5a1.65,1.65,0,0,1-1.41-1.75v-3.33h16Zm32,7.39H516a1.26,1.26,0,0,1-1.3-1.07c-.18-1.47-.32-2.67-.39-3.61H501.19v11.28H515V465H501.19v11.51h13.14c.07-.94.21-2.14.39-3.61a1.26,1.26,0,0,1,1.3-1.07h3.27v10.77h-30v-3.32a1.64,1.64,0,0,1,1.41-1.75l.34-.06a1,1,0,0,0,.34-.06l.51-.11,1.69-.28V447.44l-1.69-.28a5,5,0,0,1-.51-.11A1,1,0,0,0,491,447l-.34-.05a1.65,1.65,0,0,1-1.41-1.75v-3.33h30Z"/></svg>